<?xml version="1.0" encoding="UTF-8" standalone="no"?>
<!-- Created with Inkscape (http://www.inkscape.org/) -->

<svg
   xmlns:dc="http://purl.org/dc/elements/1.1/"
   xmlns:cc="http://creativecommons.org/ns#"
   xmlns:rdf="http://www.w3.org/1999/02/22-rdf-syntax-ns#"
   xmlns:svg="http://www.w3.org/2000/svg"
   xmlns="http://www.w3.org/2000/svg"
   xmlns:sodipodi="http://sodipodi.sourceforge.net/DTD/sodipodi-0.dtd"
   xmlns:inkscape="http://www.inkscape.org/namespaces/inkscape"
   width="744.09448819"
   height="1052.3622047"
   id="svg2"
   version="1.1"
   inkscape:version="0.48.4 r9939"
   sodipodi:docname="Happy Frog Face.svg">
  <defs
     id="defs4" />
  <sodipodi:namedview
     id="base"
     pagecolor="#ffffff"
     bordercolor="#666666"
     borderopacity="1.0"
     inkscape:pageopacity="0.0"
     inkscape:pageshadow="2"
     inkscape:zoom="2.8284271"
     inkscape:cx="183.14835"
     inkscape:cy="581.34932"
     inkscape:document-units="px"
     inkscape:current-layer="layer1"
     showgrid="false"
     showguides="true"
     inkscape:guide-bbox="true"
     inkscape:window-width="1366"
     inkscape:window-height="705"
     inkscape:window-x="-8"
     inkscape:window-y="32"
     inkscape:window-maximized="1" />
  <metadata
     id="metadata7">
    <rdf:RDF>
      <cc:Work
         rdf:about="">
        <dc:format>image/svg+xml</dc:format>
        <dc:type
           rdf:resource="http://purl.org/dc/dcmitype/StillImage" />
        <dc:title />
      </cc:Work>
    </rdf:RDF>
  </metadata>
  <g
     inkscape:label="Layer 1"
     inkscape:groupmode="layer"
     id="layer1">
    <path
       style="fill:#008000;stroke:#000000;stroke-width:1.00975299;stroke-miterlimit:4;stroke-dasharray:none"
       d="m 255.33248,519.57851 c -28.92402,-2.72136 -52.24432,-16.52799 -58.26369,-34.4946 -7.28363,-21.74021 11.44089,-43.27356 44.36612,-51.02142 1.75314,-0.41254 4.79402,-0.99105 6.75753,-1.28557 5.77144,-0.86572 5.22752,-0.86283 5.22752,-0.0278 0,1.15233 0.89385,3.71796 1.77218,5.08671 4.02365,6.27032 12.82394,7.25232 18.07984,2.01749 1.84803,-1.84064 3.35309,-4.97974 3.35309,-6.99356 0,-0.96531 -0.58833,-0.95614 5.22752,-0.0815 20.46337,3.07737 38.63014,12.92484 47.11698,25.54021 6.124,9.10308 7.20987,19.73994 2.99604,29.34815 -2.01751,4.60022 -6.00403,9.93048 -10.15758,13.58137 -11.06333,9.72444 -26.67329,16.00259 -45.05546,18.1208 -4.72878,0.54491 -16.62002,0.66131 -21.42009,0.20969 z"
       id="path3124"
       inkscape:connector-curvature="0" />
    <rect
       style="fill:#ff0000;stroke:none"
       id="rect3897"
       width="0.80859375"
       height="0.1484375"
       x="123.25391"
       y="432.37781" />
    <path
       sodipodi:type="arc"
       style="fill:#008000;stroke:#000000;stroke-width:1px;stroke-linecap:butt;stroke-linejoin:miter;stroke-opacity:1"
       id="path3813"
       sodipodi:cx="135.53572"
       sodipodi:cy="417.89789"
       sodipodi:rx="23.035715"
       sodipodi:ry="23.035715"
       d="m 158.57144,417.89789 a 23.035715,23.035715 0 1 1 -46.07143,0 23.035715,23.035715 0 1 1 46.07143,0 z"
       transform="matrix(1.2746585,0,0,1.2746586,52.238241,-105.31496)" />
    <path
       sodipodi:type="arc"
       style="fill:#008000;stroke:#000000;stroke-width:1px;stroke-linecap:butt;stroke-linejoin:miter;stroke-opacity:1"
       id="path3813-0"
       sodipodi:cx="135.53572"
       sodipodi:cy="417.89789"
       sodipodi:rx="23.035715"
       sodipodi:ry="23.035715"
       d="m 158.57144,417.89789 a 23.035715,23.035715 0 1 1 -46.07143,0 23.035715,23.035715 0 1 1 46.07143,0 z"
       transform="matrix(1.2746585,0,0,1.2746586,132.23824,-105.31496)" />
    <path
       sodipodi:type="arc"
       style="fill:#ffffff;stroke:#000000;stroke-width:1px;stroke-linecap:butt;stroke-linejoin:miter;stroke-opacity:1"
       id="path2985-1"
       sodipodi:cx="216.42857"
       sodipodi:cy="392.36218"
       sodipodi:rx="33.92857"
       sodipodi:ry="30.357143"
       d="m 250.35714,392.36218 a 33.92857,30.357143 0 1 1 -67.85714,0 33.92857,30.357143 0 1 1 67.85714,0 z"
       transform="matrix(0.72553852,0,0,0.81089595,147.97273,109.19728)" />
    <path
       sodipodi:type="arc"
       style="fill:#000000;fill-rule:evenodd;stroke:#000000;stroke-width:1px;stroke-linecap:butt;stroke-linejoin:miter;stroke-opacity:1"
       id="path3773-7"
       sodipodi:cx="135.17857"
       sodipodi:cy="452.89789"
       sodipodi:rx="18.035715"
       sodipodi:ry="16.964285"
       d="m 153.21429,452.89789 a 18.035715,16.964285 0 1 1 -36.07143,0 18.035715,16.964285 0 1 1 36.07143,0 z"
       transform="matrix(1.0780937,0,0,1.1461839,159.26483,-91.742084)" />
    <path
       sodipodi:type="arc"
       style="fill:#ffffff;fill-rule:evenodd;stroke:#000000;stroke-width:1px;stroke-linecap:butt;stroke-linejoin:miter;stroke-opacity:1"
       id="path3793-4"
       sodipodi:cx="98.39286"
       sodipodi:cy="430.04074"
       sodipodi:rx="6.9642859"
       sodipodi:ry="6.6071429"
       d="m 105.35715,430.04074 a 6.9642859,6.6071429 0 1 1 -13.928575,0 6.9642859,6.6071429 0 1 1 13.928575,0 z"
       transform="matrix(1.0029928,0,0,1.0572086,216.31267,-35.280587)" />
    <path
       sodipodi:type="arc"
       style="fill:#ffffff;stroke:#000000;stroke-width:1px;stroke-linecap:butt;stroke-linejoin:miter;stroke-opacity:1"
       id="path2985"
       sodipodi:cx="216.42857"
       sodipodi:cy="392.36218"
       sodipodi:rx="33.92857"
       sodipodi:ry="30.357143"
       d="m 250.35714,392.36218 a 33.92857,30.357143 0 1 1 -67.85714,0 33.92857,30.357143 0 1 1 67.85714,0 z"
       transform="matrix(0.72553852,0,0,0.81089595,67.972733,109.19728)" />
    <path
       sodipodi:type="arc"
       style="fill:#000000;fill-rule:evenodd;stroke:#000000;stroke-width:1px;stroke-linecap:butt;stroke-linejoin:miter;stroke-opacity:1"
       id="path3773"
       sodipodi:cx="135.17857"
       sodipodi:cy="452.89789"
       sodipodi:rx="18.035715"
       sodipodi:ry="16.964285"
       d="m 153.21429,452.89789 a 18.035715,16.964285 0 1 1 -36.07143,0 18.035715,16.964285 0 1 1 36.07143,0 z"
       transform="matrix(1.0780937,0,0,1.1461839,79.264828,-91.742098)" />
    <path
       sodipodi:type="arc"
       style="fill:#ffffff;fill-rule:evenodd;stroke:#000000;stroke-width:1px;stroke-linecap:butt;stroke-linejoin:miter;stroke-opacity:1"
       id="path3793"
       sodipodi:cx="98.39286"
       sodipodi:cy="430.04074"
       sodipodi:rx="6.9642859"
       sodipodi:ry="6.6071429"
       d="m 105.35715,430.04074 a 6.9642859,6.6071429 0 1 1 -13.928575,0 6.9642859,6.6071429 0 1 1 13.928575,0 z"
       transform="matrix(1.0029928,0,0,1.0572086,136.31267,-35.280587)" />
    <rect
       style="fill:#008000;stroke:none"
       id="rect3912"
       width="2.46875"
       height="2.71875"
       x="207.03125"
       y="449.51843" />
    <rect
       style="fill:#008000;stroke:none"
       id="rect3912-8"
       width="2.46875"
       height="2.71875"
       x="208.10938"
       y="451.03406" />
    <rect
       style="fill:#008000;stroke:none"
       id="rect3912-8-8"
       width="2.46875"
       height="2.71875"
       x="210.32812"
       y="452.15906" />
    <rect
       style="fill:#008000;stroke:none"
       id="rect3912-8-8-2"
       width="2.46875"
       height="2.71875"
       x="212.54688"
       y="452.81531" />
    <rect
       style="fill:#008000;stroke:none"
       id="rect3912-8-8-2-4"
       width="2.46875"
       height="2.71875"
       x="214.57812"
       y="453.84656" />
    <rect
       style="fill:#008000;stroke:none"
       id="rect3912-8-8-2-4-5"
       width="2.46875"
       height="2.71875"
       x="216.85938"
       y="454.56531" />
    <rect
       style="fill:#008000;stroke:none"
       id="rect3912-8-8-2-4-5-5"
       width="14.875"
       height="2.71875"
       x="218.89062"
       y="454.78406" />
    <rect
       style="fill:#008000;stroke:none"
       id="rect3912-8-8-2-4-5-1"
       width="2.46875"
       height="2.71875"
       x="232.67188"
       y="454.03406" />
    <rect
       style="fill:#008000;stroke:none"
       id="rect3912-8-8-2-4-5-7"
       width="2.46875"
       height="2.71875"
       x="234.60938"
       y="453.19031" />
    <rect
       style="fill:#008000;stroke:none"
       id="rect3912-8-8-2-4-5-7-1"
       width="2.46875"
       height="2.71875"
       x="236.82812"
       y="452.28406" />
    <rect
       style="fill:#008000;stroke:none"
       id="rect3912-8-8-2-4-5-7-15"
       width="2.46875"
       height="2.71875"
       x="239.07812"
       y="451.28406" />
    <rect
       style="fill:#008000;stroke:none"
       id="rect3912-8-8-2-4-5-7-2"
       width="2.46875"
       height="2.71875"
       x="240.60938"
       y="450.03406" />
    <rect
       style="fill:#008000;stroke:none"
       id="rect3912-8-8-2-4-5-7-7"
       width="2.46875"
       height="2.71875"
       x="244.70312"
       y="446.53406" />
    <rect
       style="fill:#008000;stroke:none"
       id="rect3912-8-8-2-4-5-7-6"
       width="2.46875"
       height="2.71875"
       x="243.76562"
       y="447.75281" />
    <rect
       style="fill:#008000;stroke:none"
       id="rect3912-8-8-2-4-5-7-14"
       width="2.46875"
       height="2.71875"
       x="241.89062"
       y="449.15906" />
    <rect
       style="fill:#008000;stroke:none"
       id="rect3912-8-8-2-4-5-7-23"
       width="2.46875"
       height="2.71875"
       x="246.10938"
       y="445.09656" />
    <rect
       style="fill:#008000;stroke:none"
       id="rect3912-8-8-2-4-5-7-22"
       width="2.46875"
       height="2.71875"
       x="247.23438"
       y="443.15906" />
    <rect
       style="fill:#008000;stroke:none"
       id="rect3912-8-8-2-4-5-7-16"
       width="2.46875"
       height="2.71875"
       x="250.45312"
       y="438.40906" />
    <rect
       style="fill:#008000;stroke:none"
       id="rect3912-8-8-2-4-5-7-8"
       width="2.46875"
       height="2.71875"
       x="249.35938"
       y="440.09656" />
    <rect
       style="fill:#008000;stroke:none"
       id="rect3912-8-8-2-4-5-7-5"
       width="2.46875"
       height="2.71875"
       x="248.45312"
       y="441.87781" />
    <rect
       style="fill:#008000;stroke:none"
       id="rect3912-8-8-2-4-5-7-76"
       width="2.46875"
       height="2.71875"
       x="251.32812"
       y="436.53406" />
    <rect
       style="fill:#008000;stroke:none"
       id="rect3912-8-8-2-4-5-7-18"
       width="2.46875"
       height="2.71875"
       x="250.67188"
       y="432.37781" />
    <path
       sodipodi:type="arc"
       style="fill:#008000;fill-rule:evenodd;stroke:#008000;stroke-width:1px;stroke-linecap:butt;stroke-linejoin:miter;stroke-opacity:1"
       id="path4155-2-7-9"
       sodipodi:cx="251.32121"
       sodipodi:cy="434.84253"
       sodipodi:rx="0.41984466"
       sodipodi:ry="0.40327182"
       d="m 251.74106,434.84253 a 0.41984466,0.40327182 0 1 1 -0.83969,0 0.41984466,0.40327182 0 1 1 0.83969,0 z"
       transform="matrix(0.80643844,0,0,0.83957977,50.23019,70.37256)" />
    <path
       sodipodi:type="arc"
       style="fill:#008000;fill-rule:evenodd;stroke:#008000;stroke-width:1px;stroke-linecap:butt;stroke-linejoin:miter;stroke-opacity:1"
       id="path4155-2-7-9-5"
       sodipodi:cx="251.32121"
       sodipodi:cy="434.84253"
       sodipodi:rx="0.41984466"
       sodipodi:ry="0.40327182"
       d="m 251.74106,434.84253 a 0.41984466,0.40327182 0 1 1 -0.83969,0 0.41984466,0.40327182 0 1 1 0.83969,0 z"
       transform="matrix(0.80643844,0,0,0.83957977,50.26301,70.712194)" />
    <path
       sodipodi:type="arc"
       style="fill:#008000;fill-rule:evenodd;stroke:#008000;stroke-width:1px;stroke-linecap:butt;stroke-linejoin:miter;stroke-opacity:1"
       id="path4155-2-7-9-5-4"
       sodipodi:cx="251.32121"
       sodipodi:cy="434.84253"
       sodipodi:rx="0.41984466"
       sodipodi:ry="0.40327182"
       d="m 251.74106,434.84253 a 0.41984466,0.40327182 0 1 1 -0.83969,0 0.41984466,0.40327182 0 1 1 0.83969,0 z"
       transform="matrix(0.80643844,0,0,0.83957977,49.918935,69.020577)" />
    <path
       sodipodi:type="arc"
       style="fill:#008000;fill-rule:evenodd;stroke:#008000;stroke-width:1px;stroke-linecap:butt;stroke-linejoin:miter;stroke-opacity:1"
       id="path4155-2-7-9-5-4-3"
       sodipodi:cx="251.32121"
       sodipodi:cy="434.84253"
       sodipodi:rx="0.41984466"
       sodipodi:ry="0.40327182"
       d="m 251.74106,434.84253 a 0.41984466,0.40327182 0 1 1 -0.83969,0 0.41984466,0.40327182 0 1 1 0.83969,0 z"
       transform="matrix(0.80643844,0,0,0.83957977,50.029094,69.573599)" />
    <path
       sodipodi:type="arc"
       style="fill:#008000;fill-rule:evenodd;stroke:#008000;stroke-width:1px;stroke-linecap:butt;stroke-linejoin:miter;stroke-opacity:1"
       id="path4155-2-7-9-5-4-1"
       sodipodi:cx="251.32121"
       sodipodi:cy="434.84253"
       sodipodi:rx="0.41984466"
       sodipodi:ry="0.40327182"
       d="m 251.74106,434.84253 a 0.41984466,0.40327182 0 1 1 -0.83969,0 0.41984466,0.40327182 0 1 1 0.83969,0 z"
       transform="matrix(0.80643844,0,0,0.83957977,50.348852,71.084321)" />
    <path
       sodipodi:type="arc"
       style="fill:none;stroke:#000000;stroke-width:1px;stroke-linecap:butt;stroke-linejoin:miter;stroke-opacity:1"
       id="path4636"
       sodipodi:cx="207.25"
       sodipodi:cy="459.86218"
       sodipodi:rx="42.5"
       sodipodi:ry="13.5"
       d="m 249.75,459.86218 a 42.5,13.5 0 1 1 -85,0 42.5,13.5 0 1 1 85,0 z"
       transform="matrix(1.1637971,0,0,0.99713889,23.803053,16.415716)" />
    <rect
       style="fill:#008000;stroke:#008000;stroke-width:0.87268132"
       id="rect4638"
       width="99.127319"
       height="13.627319"
       x="215.43634"
       y="459.79852" />
    <path
       sodipodi:type="arc"
       style="fill:#008000;fill-rule:evenodd;stroke:#008000;stroke-width:1px;stroke-linecap:butt;stroke-linejoin:miter;stroke-opacity:1"
       id="path4155-2-7-9-1"
       sodipodi:cx="251.32121"
       sodipodi:cy="434.84253"
       sodipodi:rx="0.41984466"
       sodipodi:ry="0.40327182"
       d="m 251.74106,434.84253 a 0.41984466,0.40327182 0 1 1 -0.83969,0 0.41984466,0.40327182 0 1 1 0.83969,0 z"
       transform="matrix(0.80643844,0,0,0.83957977,50.137414,69.933441)" />
    <path
       sodipodi:type="arc"
       style="fill:#008000;fill-rule:evenodd;stroke:#008000;stroke-width:1px;stroke-linecap:butt;stroke-linejoin:miter;stroke-opacity:1"
       id="path4155-2-7-9-5-4-7"
       sodipodi:cx="251.32121"
       sodipodi:cy="434.84253"
       sodipodi:rx="0.41984466"
       sodipodi:ry="0.40327182"
       d="m 251.74106,434.84253 a 0.41984466,0.40327182 0 1 1 -0.83969,0 0.41984466,0.40327182 0 1 1 0.83969,0 z"
       transform="matrix(0.80643844,0,0,0.83957977,49.856164,68.527191)" />
    <path
       sodipodi:type="arc"
       style="fill:#008000;fill-rule:evenodd;stroke:#008000;stroke-width:1px;stroke-linecap:butt;stroke-linejoin:miter;stroke-opacity:1"
       id="path4155-2-7-9-5-4-7-4"
       sodipodi:cx="251.32121"
       sodipodi:cy="434.84253"
       sodipodi:rx="0.41984466"
       sodipodi:ry="0.40327182"
       d="m 251.74106,434.84253 a 0.41984466,0.40327182 0 1 1 -0.83969,0 0.41984466,0.40327182 0 1 1 0.83969,0 z"
       transform="matrix(0.80643844,0,0,0.83957977,49.637414,71.339691)" />
    <rect
       style="fill:#008000;stroke:none"
       id="rect3912-1"
       width="2.46875"
       height="2.71875"
       x="-322.96863"
       y="449.5188"
       transform="scale(-1,1)" />
    <rect
       style="fill:#008000;stroke:none"
       id="rect3912-8-3"
       width="2.46875"
       height="2.71875"
       x="-321.8905"
       y="451.03442"
       transform="scale(-1,1)" />
    <rect
       style="fill:#008000;stroke:none"
       id="rect3912-8-8-5"
       width="2.46875"
       height="2.71875"
       x="-319.67175"
       y="452.15942"
       transform="scale(-1,1)" />
    <rect
       style="fill:#008000;stroke:none"
       id="rect3912-8-8-2-9"
       width="2.46875"
       height="2.71875"
       x="-317.453"
       y="452.81567"
       transform="scale(-1,1)" />
    <rect
       style="fill:#008000;stroke:none"
       id="rect3912-8-8-2-4-8"
       width="2.46875"
       height="2.71875"
       x="-315.42175"
       y="453.84692"
       transform="scale(-1,1)" />
    <rect
       style="fill:#008000;stroke:none"
       id="rect3912-8-8-2-4-5-4"
       width="2.46875"
       height="2.71875"
       x="-313.1405"
       y="454.56567"
       transform="scale(-1,1)" />
    <rect
       style="fill:#008000;stroke:none"
       id="rect3912-8-8-2-4-5-5-0"
       width="14.875"
       height="2.71875"
       x="-311.10925"
       y="454.78442"
       transform="scale(-1,1)" />
    <rect
       style="fill:#008000;stroke:none"
       id="rect3912-8-8-2-4-5-1-7"
       width="2.46875"
       height="2.71875"
       x="-297.328"
       y="454.03442"
       transform="scale(-1,1)" />
    <rect
       style="fill:#008000;stroke:none"
       id="rect3912-8-8-2-4-5-7-63"
       width="2.46875"
       height="2.71875"
       x="-295.3905"
       y="453.19067"
       transform="scale(-1,1)" />
    <rect
       style="fill:#008000;stroke:none"
       id="rect3912-8-8-2-4-5-7-1-6"
       width="2.46875"
       height="2.71875"
       x="-293.17175"
       y="452.28442"
       transform="scale(-1,1)" />
    <rect
       style="fill:#008000;stroke:none"
       id="rect3912-8-8-2-4-5-7-15-1"
       width="2.46875"
       height="2.71875"
       x="-290.92175"
       y="451.28442"
       transform="scale(-1,1)" />
    <rect
       style="fill:#008000;stroke:none"
       id="rect3912-8-8-2-4-5-7-2-5"
       width="2.46875"
       height="2.71875"
       x="-289.3905"
       y="450.03442"
       transform="scale(-1,1)" />
    <rect
       style="fill:#008000;stroke:none"
       id="rect3912-8-8-2-4-5-7-7-4"
       width="2.46875"
       height="2.71875"
       x="-285.29675"
       y="446.53442"
       transform="scale(-1,1)" />
    <rect
       style="fill:#008000;stroke:none"
       id="rect3912-8-8-2-4-5-7-6-2"
       width="2.46875"
       height="2.71875"
       x="-286.23425"
       y="447.75317"
       transform="scale(-1,1)" />
    <rect
       style="fill:#008000;stroke:none"
       id="rect3912-8-8-2-4-5-7-14-0"
       width="2.46875"
       height="2.71875"
       x="-288.10925"
       y="449.15942"
       transform="scale(-1,1)" />
    <rect
       style="fill:#008000;stroke:none"
       id="rect3912-8-8-2-4-5-7-23-9"
       width="2.46875"
       height="2.71875"
       x="-283.8905"
       y="445.09692"
       transform="scale(-1,1)" />
    <rect
       style="fill:#008000;stroke:none"
       id="rect3912-8-8-2-4-5-7-22-7"
       width="2.46875"
       height="2.71875"
       x="-282.7655"
       y="443.15942"
       transform="scale(-1,1)" />
    <rect
       style="fill:#008000;stroke:none"
       id="rect3912-8-8-2-4-5-7-16-3"
       width="2.46875"
       height="2.71875"
       x="-279.54675"
       y="438.40942"
       transform="scale(-1,1)" />
    <rect
       style="fill:#008000;stroke:none"
       id="rect3912-8-8-2-4-5-7-8-7"
       width="2.46875"
       height="2.71875"
       x="-280.6405"
       y="440.09692"
       transform="scale(-1,1)" />
    <rect
       style="fill:#008000;stroke:none"
       id="rect3912-8-8-2-4-5-7-5-2"
       width="2.46875"
       height="2.71875"
       x="-281.54675"
       y="441.87817"
       transform="scale(-1,1)" />
    <rect
       style="fill:#008000;stroke:none"
       id="rect3912-8-8-2-4-5-7-76-6"
       width="2.46875"
       height="2.71875"
       x="-278.67175"
       y="436.53442"
       transform="scale(-1,1)" />
    <rect
       style="fill:#008000;stroke:none"
       id="rect3912-8-8-2-4-5-7-18-0"
       width="2.46875"
       height="2.71875"
       x="-279.328"
       y="432.37817"
       transform="scale(-1,1)" />
    <path
       sodipodi:type="arc"
       style="fill:#008000;fill-rule:evenodd;stroke:#008000;stroke-width:1px;stroke-linecap:butt;stroke-linejoin:miter;stroke-opacity:1"
       id="path4155-2-7-9-16"
       sodipodi:cx="251.32121"
       sodipodi:cy="434.84253"
       sodipodi:rx="0.41984466"
       sodipodi:ry="0.40327182"
       d="m 251.74106,434.84253 a 0.41984466,0.40327182 0 1 1 -0.83969,0 0.41984466,0.40327182 0 1 1 0.83969,0 z"
       transform="matrix(-0.80643844,0,0,0.83957977,479.7697,70.372941)" />
    <path
       sodipodi:type="arc"
       style="fill:#008000;fill-rule:evenodd;stroke:#008000;stroke-width:1px;stroke-linecap:butt;stroke-linejoin:miter;stroke-opacity:1"
       id="path4155-2-7-9-5-5"
       sodipodi:cx="251.32121"
       sodipodi:cy="434.84253"
       sodipodi:rx="0.41984466"
       sodipodi:ry="0.40327182"
       d="m 251.74106,434.84253 a 0.41984466,0.40327182 0 1 1 -0.83969,0 0.41984466,0.40327182 0 1 1 0.83969,0 z"
       transform="matrix(-0.80643844,0,0,0.83957977,479.73688,70.712581)" />
    <path
       sodipodi:type="arc"
       style="fill:#008000;fill-rule:evenodd;stroke:#008000;stroke-width:1px;stroke-linecap:butt;stroke-linejoin:miter;stroke-opacity:1"
       id="path4155-2-7-9-5-4-75"
       sodipodi:cx="251.32121"
       sodipodi:cy="434.84253"
       sodipodi:rx="0.41984466"
       sodipodi:ry="0.40327182"
       d="m 251.74106,434.84253 a 0.41984466,0.40327182 0 1 1 -0.83969,0 0.41984466,0.40327182 0 1 1 0.83969,0 z"
       transform="matrix(-0.80643844,0,0,0.83957977,480.08095,69.020961)" />
    <path
       sodipodi:type="arc"
       style="fill:#008000;fill-rule:evenodd;stroke:#008000;stroke-width:1px;stroke-linecap:butt;stroke-linejoin:miter;stroke-opacity:1"
       id="path4155-2-7-9-5-4-3-4"
       sodipodi:cx="251.32121"
       sodipodi:cy="434.84253"
       sodipodi:rx="0.41984466"
       sodipodi:ry="0.40327182"
       d="m 251.74106,434.84253 a 0.41984466,0.40327182 0 1 1 -0.83969,0 0.41984466,0.40327182 0 1 1 0.83969,0 z"
       transform="matrix(-0.80643844,0,0,0.83957977,479.9708,69.573981)" />
    <path
       sodipodi:type="arc"
       style="fill:#008000;fill-rule:evenodd;stroke:#008000;stroke-width:1px;stroke-linecap:butt;stroke-linejoin:miter;stroke-opacity:1"
       id="path4155-2-7-9-5-4-1-1"
       sodipodi:cx="251.32121"
       sodipodi:cy="434.84253"
       sodipodi:rx="0.41984466"
       sodipodi:ry="0.40327182"
       d="m 251.74106,434.84253 a 0.41984466,0.40327182 0 1 1 -0.83969,0 0.41984466,0.40327182 0 1 1 0.83969,0 z"
       transform="matrix(-0.80643844,0,0,0.83957977,479.65104,71.084701)" />
    <path
       sodipodi:type="arc"
       style="fill:#008000;fill-rule:evenodd;stroke:#008000;stroke-width:1px;stroke-linecap:butt;stroke-linejoin:miter;stroke-opacity:1"
       id="path4155-2-7-9-1-2"
       sodipodi:cx="251.32121"
       sodipodi:cy="434.84253"
       sodipodi:rx="0.41984466"
       sodipodi:ry="0.40327182"
       d="m 251.74106,434.84253 a 0.41984466,0.40327182 0 1 1 -0.83969,0 0.41984466,0.40327182 0 1 1 0.83969,0 z"
       transform="matrix(-0.80643844,0,0,0.83957977,479.86248,69.933821)" />
    <path
       sodipodi:type="arc"
       style="fill:#008000;fill-rule:evenodd;stroke:#008000;stroke-width:1px;stroke-linecap:butt;stroke-linejoin:miter;stroke-opacity:1"
       id="path4155-2-7-9-5-4-7-0"
       sodipodi:cx="251.32121"
       sodipodi:cy="434.84253"
       sodipodi:rx="0.41984466"
       sodipodi:ry="0.40327182"
       d="m 251.74106,434.84253 a 0.41984466,0.40327182 0 1 1 -0.83969,0 0.41984466,0.40327182 0 1 1 0.83969,0 z"
       transform="matrix(-0.80643844,0,0,0.83957977,480.14373,68.527571)" />
    <path
       sodipodi:type="arc"
       style="fill:#008000;fill-rule:evenodd;stroke:#008000;stroke-width:1px;stroke-linecap:butt;stroke-linejoin:miter;stroke-opacity:1"
       id="path4155-2-7-9-5-4-7-4-0"
       sodipodi:cx="251.32121"
       sodipodi:cy="434.84253"
       sodipodi:rx="0.41984466"
       sodipodi:ry="0.40327182"
       d="m 251.74106,434.84253 a 0.41984466,0.40327182 0 1 1 -0.83969,0 0.41984466,0.40327182 0 1 1 0.83969,0 z"
       transform="matrix(-0.80643844,0,0,0.83957977,480.36248,71.340071)" />
  </g>
</svg>
