<?xml version="1.0" encoding="UTF-8" standalone="no"?>
<!-- Created with Inkscape (http://www.inkscape.org/) -->

<svg
   xmlns:dc="http://purl.org/dc/elements/1.1/"
   xmlns:cc="http://creativecommons.org/ns#"
   xmlns:rdf="http://www.w3.org/1999/02/22-rdf-syntax-ns#"
   xmlns:svg="http://www.w3.org/2000/svg"
   xmlns="http://www.w3.org/2000/svg"
   xmlns:sodipodi="http://sodipodi.sourceforge.net/DTD/sodipodi-0.dtd"
   xmlns:inkscape="http://www.inkscape.org/namespaces/inkscape"
   width="744.09448819"
   height="1052.3622047"
   id="svg2"
   version="1.1"
   inkscape:version="0.48.4 r9939"
   sodipodi:docname="Happy Frog Face.svg"
   inkscape:export-filename="C:\Users\harri_000\Documents\GitHub\feel-frog\FeelFrog\SDH Graphics\Faces\Happy Frog Face.png"
   inkscape:export-xdpi="46.84"
   inkscape:export-ydpi="46.84">
  <defs
     id="defs4" />
  <sodipodi:namedview
     id="base"
     pagecolor="#ffffff"
     bordercolor="#666666"
     borderopacity="1.0"
     inkscape:pageopacity="0.0"
     inkscape:pageshadow="2"
     inkscape:zoom="2.8284271"
     inkscape:cx="282.1433"
     inkscape:cy="590.83468"
     inkscape:document-units="px"
     inkscape:current-layer="layer1"
     showgrid="false"
     showguides="true"
     inkscape:guide-bbox="true"
     inkscape:window-width="1366"
     inkscape:window-height="705"
     inkscape:window-x="-8"
     inkscape:window-y="32"
     inkscape:window-maximized="1" />
  <metadata
     id="metadata7">
    <rdf:RDF>
      <cc:Work
         rdf:about="">
        <dc:format>image/svg+xml</dc:format>
        <dc:type
           rdf:resource="http://purl.org/dc/dcmitype/StillImage" />
        <dc:title></dc:title>
      </cc:Work>
    </rdf:RDF>
  </metadata>
  <g
     inkscape:label="Layer 1"
     inkscape:groupmode="layer"
     id="layer1">
    <rect
       style="fill:#ff0000;stroke:none"
       id="rect3897"
       width="0.80859375"
       height="0.1484375"
       x="123.25391"
       y="432.37781" />
    <g
       id="g4428"
       transform="translate(-0.34603791,0)">
      <path
         inkscape:connector-curvature="0"
         id="path3124"
         d="m 255.33248,519.57851 c -28.92402,-2.72136 -52.24432,-16.52799 -58.26369,-34.4946 -7.28363,-21.74021 11.44089,-43.27356 44.36612,-51.02142 1.75314,-0.41254 4.79402,-0.99105 6.75753,-1.28557 5.77144,-0.86572 5.22752,-0.86283 5.22752,-0.0278 0,1.15233 0.89385,3.71796 1.77218,5.08671 4.02365,6.27032 12.82394,7.25232 18.07984,2.01749 1.84803,-1.84064 3.35309,-4.97974 3.35309,-6.99356 0,-0.96531 -0.58833,-0.95614 5.22752,-0.0815 20.46337,3.07737 38.63014,12.92484 47.11698,25.54021 6.124,9.10308 7.20987,19.73994 2.99604,29.34815 -2.01751,4.60022 -6.00403,9.93048 -10.15758,13.58137 -11.06333,9.72444 -26.67329,16.00259 -45.05546,18.1208 -4.72878,0.54491 -16.62002,0.66131 -21.42009,0.20969 z"
         style="fill:#008000;stroke:#000000;stroke-width:1.00975299;stroke-miterlimit:4;stroke-dasharray:none" />
      <path
         transform="matrix(1.2746585,0,0,1.2746586,52.238241,-105.31496)"
         d="m 158.57144,417.89789 c 0,12.72227 -10.31345,23.03571 -23.03572,23.03571 -12.72227,0 -23.03571,-10.31344 -23.03571,-23.03571 0,-12.72228 10.31344,-23.03572 23.03571,-23.03572 12.72227,0 23.03572,10.31344 23.03572,23.03572 z"
         sodipodi:ry="23.035715"
         sodipodi:rx="23.035715"
         sodipodi:cy="417.89789"
         sodipodi:cx="135.53572"
         id="path3813"
         style="fill:#008000;stroke:#000000;stroke-width:1px;stroke-linecap:butt;stroke-linejoin:miter;stroke-opacity:1"
         sodipodi:type="arc" />
      <path
         transform="matrix(1.2746585,0,0,1.2746586,132.23824,-105.31496)"
         d="m 158.57144,417.89789 c 0,12.72227 -10.31345,23.03571 -23.03572,23.03571 -12.72227,0 -23.03571,-10.31344 -23.03571,-23.03571 0,-12.72228 10.31344,-23.03572 23.03571,-23.03572 12.72227,0 23.03572,10.31344 23.03572,23.03572 z"
         sodipodi:ry="23.035715"
         sodipodi:rx="23.035715"
         sodipodi:cy="417.89789"
         sodipodi:cx="135.53572"
         id="path3813-0"
         style="fill:#008000;stroke:#000000;stroke-width:1px;stroke-linecap:butt;stroke-linejoin:miter;stroke-opacity:1"
         sodipodi:type="arc" />
      <path
         transform="matrix(0.72553852,0,0,0.81089595,147.97273,109.19728)"
         d="m 250.35714,392.36218 c 0,16.76579 -15.19033,30.35715 -33.92857,30.35715 -18.73823,0 -33.92857,-13.59136 -33.92857,-30.35715 0,-16.76578 15.19034,-30.35714 33.92857,-30.35714 18.73824,0 33.92857,13.59136 33.92857,30.35714 z"
         sodipodi:ry="30.357143"
         sodipodi:rx="33.92857"
         sodipodi:cy="392.36218"
         sodipodi:cx="216.42857"
         id="path2985-1"
         style="fill:#ffffff;stroke:#000000;stroke-width:1px;stroke-linecap:butt;stroke-linejoin:miter;stroke-opacity:1"
         sodipodi:type="arc" />
      <path
         transform="matrix(1.0780937,0,0,1.1461839,159.26483,-91.742084)"
         d="m 153.21429,452.89789 c 0,9.36911 -8.07487,16.96428 -18.03572,16.96428 -9.96085,0 -18.03571,-7.59517 -18.03571,-16.96428 0,-9.36912 8.07486,-16.96429 18.03571,-16.96429 9.96085,0 18.03572,7.59517 18.03572,16.96429 z"
         sodipodi:ry="16.964285"
         sodipodi:rx="18.035715"
         sodipodi:cy="452.89789"
         sodipodi:cx="135.17857"
         id="path3773-7"
         style="fill:#000000;fill-rule:evenodd;stroke:#000000;stroke-width:1px;stroke-linecap:butt;stroke-linejoin:miter;stroke-opacity:1"
         sodipodi:type="arc" />
      <path
         transform="matrix(1.0029928,0,0,1.0572086,216.31267,-35.280587)"
         d="m 105.35715,430.04074 c 0,3.64903 -3.11802,6.60714 -6.96429,6.60714 -3.846268,0 -6.964285,-2.95811 -6.964285,-6.60714 0,-3.64902 3.118017,-6.60714 6.964285,-6.60714 3.84627,0 6.96429,2.95812 6.96429,6.60714 z"
         sodipodi:ry="6.6071429"
         sodipodi:rx="6.9642859"
         sodipodi:cy="430.04074"
         sodipodi:cx="98.39286"
         id="path3793-4"
         style="fill:#ffffff;fill-rule:evenodd;stroke:#000000;stroke-width:1px;stroke-linecap:butt;stroke-linejoin:miter;stroke-opacity:1"
         sodipodi:type="arc" />
      <path
         transform="matrix(0.72553852,0,0,0.81089595,67.972733,109.19728)"
         d="m 250.35714,392.36218 c 0,16.76579 -15.19033,30.35715 -33.92857,30.35715 -18.73823,0 -33.92857,-13.59136 -33.92857,-30.35715 0,-16.76578 15.19034,-30.35714 33.92857,-30.35714 18.73824,0 33.92857,13.59136 33.92857,30.35714 z"
         sodipodi:ry="30.357143"
         sodipodi:rx="33.92857"
         sodipodi:cy="392.36218"
         sodipodi:cx="216.42857"
         id="path2985"
         style="fill:#ffffff;stroke:#000000;stroke-width:1px;stroke-linecap:butt;stroke-linejoin:miter;stroke-opacity:1"
         sodipodi:type="arc" />
      <path
         transform="matrix(1.0780937,0,0,1.1461839,79.264828,-91.742098)"
         d="m 153.21429,452.89789 c 0,9.36911 -8.07487,16.96428 -18.03572,16.96428 -9.96085,0 -18.03571,-7.59517 -18.03571,-16.96428 0,-9.36912 8.07486,-16.96429 18.03571,-16.96429 9.96085,0 18.03572,7.59517 18.03572,16.96429 z"
         sodipodi:ry="16.964285"
         sodipodi:rx="18.035715"
         sodipodi:cy="452.89789"
         sodipodi:cx="135.17857"
         id="path3773"
         style="fill:#000000;fill-rule:evenodd;stroke:#000000;stroke-width:1px;stroke-linecap:butt;stroke-linejoin:miter;stroke-opacity:1"
         sodipodi:type="arc" />
      <path
         transform="matrix(1.0029928,0,0,1.0572086,136.31267,-35.280587)"
         d="m 105.35715,430.04074 c 0,3.64903 -3.11802,6.60714 -6.96429,6.60714 -3.846268,0 -6.964285,-2.95811 -6.964285,-6.60714 0,-3.64902 3.118017,-6.60714 6.964285,-6.60714 3.84627,0 6.96429,2.95812 6.96429,6.60714 z"
         sodipodi:ry="6.6071429"
         sodipodi:rx="6.9642859"
         sodipodi:cy="430.04074"
         sodipodi:cx="98.39286"
         id="path3793"
         style="fill:#ffffff;fill-rule:evenodd;stroke:#000000;stroke-width:1px;stroke-linecap:butt;stroke-linejoin:miter;stroke-opacity:1"
         sodipodi:type="arc" />
      <rect
         y="449.51843"
         x="207.03125"
         height="2.71875"
         width="2.46875"
         id="rect3912"
         style="fill:#008000;stroke:none" />
      <rect
         y="451.03406"
         x="208.10938"
         height="2.71875"
         width="2.46875"
         id="rect3912-8"
         style="fill:#008000;stroke:none" />
      <rect
         y="452.15906"
         x="210.32812"
         height="2.71875"
         width="2.46875"
         id="rect3912-8-8"
         style="fill:#008000;stroke:none" />
      <rect
         y="452.81531"
         x="212.54688"
         height="2.71875"
         width="2.46875"
         id="rect3912-8-8-2"
         style="fill:#008000;stroke:none" />
      <rect
         y="453.84656"
         x="214.57812"
         height="2.71875"
         width="2.46875"
         id="rect3912-8-8-2-4"
         style="fill:#008000;stroke:none" />
      <rect
         y="454.56531"
         x="216.85938"
         height="2.71875"
         width="2.46875"
         id="rect3912-8-8-2-4-5"
         style="fill:#008000;stroke:none" />
      <rect
         y="454.78406"
         x="218.89062"
         height="2.71875"
         width="14.875"
         id="rect3912-8-8-2-4-5-5"
         style="fill:#008000;stroke:none" />
      <rect
         y="454.03406"
         x="232.67188"
         height="2.71875"
         width="2.46875"
         id="rect3912-8-8-2-4-5-1"
         style="fill:#008000;stroke:none" />
      <rect
         y="453.19031"
         x="234.60938"
         height="2.71875"
         width="2.46875"
         id="rect3912-8-8-2-4-5-7"
         style="fill:#008000;stroke:none" />
      <rect
         y="452.28406"
         x="236.82812"
         height="2.71875"
         width="2.46875"
         id="rect3912-8-8-2-4-5-7-1"
         style="fill:#008000;stroke:none" />
      <rect
         y="451.28406"
         x="239.07812"
         height="2.71875"
         width="2.46875"
         id="rect3912-8-8-2-4-5-7-15"
         style="fill:#008000;stroke:none" />
      <rect
         y="450.03406"
         x="240.60938"
         height="2.71875"
         width="2.46875"
         id="rect3912-8-8-2-4-5-7-2"
         style="fill:#008000;stroke:none" />
      <rect
         y="446.53406"
         x="244.70312"
         height="2.71875"
         width="2.46875"
         id="rect3912-8-8-2-4-5-7-7"
         style="fill:#008000;stroke:none" />
      <rect
         y="447.75281"
         x="243.76562"
         height="2.71875"
         width="2.46875"
         id="rect3912-8-8-2-4-5-7-6"
         style="fill:#008000;stroke:none" />
      <rect
         y="449.15906"
         x="241.89062"
         height="2.71875"
         width="2.46875"
         id="rect3912-8-8-2-4-5-7-14"
         style="fill:#008000;stroke:none" />
      <rect
         y="445.09656"
         x="246.10938"
         height="2.71875"
         width="2.46875"
         id="rect3912-8-8-2-4-5-7-23"
         style="fill:#008000;stroke:none" />
      <rect
         y="443.15906"
         x="247.23438"
         height="2.71875"
         width="2.46875"
         id="rect3912-8-8-2-4-5-7-22"
         style="fill:#008000;stroke:none" />
      <rect
         y="438.40906"
         x="250.45312"
         height="2.71875"
         width="2.46875"
         id="rect3912-8-8-2-4-5-7-16"
         style="fill:#008000;stroke:none" />
      <rect
         y="440.09656"
         x="249.35938"
         height="2.71875"
         width="2.46875"
         id="rect3912-8-8-2-4-5-7-8"
         style="fill:#008000;stroke:none" />
      <rect
         y="441.87781"
         x="248.45312"
         height="2.71875"
         width="2.46875"
         id="rect3912-8-8-2-4-5-7-5"
         style="fill:#008000;stroke:none" />
      <rect
         y="436.53406"
         x="251.32812"
         height="2.71875"
         width="2.46875"
         id="rect3912-8-8-2-4-5-7-76"
         style="fill:#008000;stroke:none" />
      <rect
         y="432.37781"
         x="250.67188"
         height="2.71875"
         width="2.46875"
         id="rect3912-8-8-2-4-5-7-18"
         style="fill:#008000;stroke:none" />
      <path
         transform="matrix(0.80643844,0,0,0.83957977,50.23019,70.37256)"
         d="m 251.74106,434.84253 c 0,0.22272 -0.18797,0.40327 -0.41985,0.40327 -0.23187,0 -0.41984,-0.18055 -0.41984,-0.40327 0,-0.22272 0.18797,-0.40327 0.41984,-0.40327 0.23188,0 0.41985,0.18055 0.41985,0.40327 z"
         sodipodi:ry="0.40327182"
         sodipodi:rx="0.41984466"
         sodipodi:cy="434.84253"
         sodipodi:cx="251.32121"
         id="path4155-2-7-9"
         style="fill:#008000;fill-rule:evenodd;stroke:#008000;stroke-width:1px;stroke-linecap:butt;stroke-linejoin:miter;stroke-opacity:1"
         sodipodi:type="arc" />
      <path
         transform="matrix(0.80643844,0,0,0.83957977,50.26301,70.712194)"
         d="m 251.74106,434.84253 c 0,0.22272 -0.18797,0.40327 -0.41985,0.40327 -0.23187,0 -0.41984,-0.18055 -0.41984,-0.40327 0,-0.22272 0.18797,-0.40327 0.41984,-0.40327 0.23188,0 0.41985,0.18055 0.41985,0.40327 z"
         sodipodi:ry="0.40327182"
         sodipodi:rx="0.41984466"
         sodipodi:cy="434.84253"
         sodipodi:cx="251.32121"
         id="path4155-2-7-9-5"
         style="fill:#008000;fill-rule:evenodd;stroke:#008000;stroke-width:1px;stroke-linecap:butt;stroke-linejoin:miter;stroke-opacity:1"
         sodipodi:type="arc" />
      <path
         transform="matrix(0.80643844,0,0,0.83957977,49.918935,69.020577)"
         d="m 251.74106,434.84253 c 0,0.22272 -0.18797,0.40327 -0.41985,0.40327 -0.23187,0 -0.41984,-0.18055 -0.41984,-0.40327 0,-0.22272 0.18797,-0.40327 0.41984,-0.40327 0.23188,0 0.41985,0.18055 0.41985,0.40327 z"
         sodipodi:ry="0.40327182"
         sodipodi:rx="0.41984466"
         sodipodi:cy="434.84253"
         sodipodi:cx="251.32121"
         id="path4155-2-7-9-5-4"
         style="fill:#008000;fill-rule:evenodd;stroke:#008000;stroke-width:1px;stroke-linecap:butt;stroke-linejoin:miter;stroke-opacity:1"
         sodipodi:type="arc" />
      <path
         transform="matrix(0.80643844,0,0,0.83957977,50.029094,69.573599)"
         d="m 251.74106,434.84253 c 0,0.22272 -0.18797,0.40327 -0.41985,0.40327 -0.23187,0 -0.41984,-0.18055 -0.41984,-0.40327 0,-0.22272 0.18797,-0.40327 0.41984,-0.40327 0.23188,0 0.41985,0.18055 0.41985,0.40327 z"
         sodipodi:ry="0.40327182"
         sodipodi:rx="0.41984466"
         sodipodi:cy="434.84253"
         sodipodi:cx="251.32121"
         id="path4155-2-7-9-5-4-3"
         style="fill:#008000;fill-rule:evenodd;stroke:#008000;stroke-width:1px;stroke-linecap:butt;stroke-linejoin:miter;stroke-opacity:1"
         sodipodi:type="arc" />
      <path
         transform="matrix(0.80643844,0,0,0.83957977,50.348852,71.084321)"
         d="m 251.74106,434.84253 c 0,0.22272 -0.18797,0.40327 -0.41985,0.40327 -0.23187,0 -0.41984,-0.18055 -0.41984,-0.40327 0,-0.22272 0.18797,-0.40327 0.41984,-0.40327 0.23188,0 0.41985,0.18055 0.41985,0.40327 z"
         sodipodi:ry="0.40327182"
         sodipodi:rx="0.41984466"
         sodipodi:cy="434.84253"
         sodipodi:cx="251.32121"
         id="path4155-2-7-9-5-4-1"
         style="fill:#008000;fill-rule:evenodd;stroke:#008000;stroke-width:1px;stroke-linecap:butt;stroke-linejoin:miter;stroke-opacity:1"
         sodipodi:type="arc" />
      <path
         transform="matrix(1.1637971,0,0,0.99713889,23.803053,16.415716)"
         d="m 249.75,459.86218 c 0,7.45585 -19.0279,13.5 -42.5,13.5 -23.4721,0 -42.5,-6.04415 -42.5,-13.5 0,-7.45584 19.0279,-13.5 42.5,-13.5 23.4721,0 42.5,6.04416 42.5,13.5 z"
         sodipodi:ry="13.5"
         sodipodi:rx="42.5"
         sodipodi:cy="459.86218"
         sodipodi:cx="207.25"
         id="path4636"
         style="fill:none;stroke:#000000;stroke-width:1px;stroke-linecap:butt;stroke-linejoin:miter;stroke-opacity:1"
         sodipodi:type="arc" />
      <rect
         y="459.79852"
         x="215.43634"
         height="13.627319"
         width="99.127319"
         id="rect4638"
         style="fill:#008000;stroke:#008000;stroke-width:0.87268132" />
      <path
         transform="matrix(0.80643844,0,0,0.83957977,50.137414,69.933441)"
         d="m 251.74106,434.84253 c 0,0.22272 -0.18797,0.40327 -0.41985,0.40327 -0.23187,0 -0.41984,-0.18055 -0.41984,-0.40327 0,-0.22272 0.18797,-0.40327 0.41984,-0.40327 0.23188,0 0.41985,0.18055 0.41985,0.40327 z"
         sodipodi:ry="0.40327182"
         sodipodi:rx="0.41984466"
         sodipodi:cy="434.84253"
         sodipodi:cx="251.32121"
         id="path4155-2-7-9-1"
         style="fill:#008000;fill-rule:evenodd;stroke:#008000;stroke-width:1px;stroke-linecap:butt;stroke-linejoin:miter;stroke-opacity:1"
         sodipodi:type="arc" />
      <path
         transform="matrix(0.80643844,0,0,0.83957977,49.856164,68.527191)"
         d="m 251.74106,434.84253 c 0,0.22272 -0.18797,0.40327 -0.41985,0.40327 -0.23187,0 -0.41984,-0.18055 -0.41984,-0.40327 0,-0.22272 0.18797,-0.40327 0.41984,-0.40327 0.23188,0 0.41985,0.18055 0.41985,0.40327 z"
         sodipodi:ry="0.40327182"
         sodipodi:rx="0.41984466"
         sodipodi:cy="434.84253"
         sodipodi:cx="251.32121"
         id="path4155-2-7-9-5-4-7"
         style="fill:#008000;fill-rule:evenodd;stroke:#008000;stroke-width:1px;stroke-linecap:butt;stroke-linejoin:miter;stroke-opacity:1"
         sodipodi:type="arc" />
      <path
         transform="matrix(0.80643844,0,0,0.83957977,49.637414,71.339691)"
         d="m 251.74106,434.84253 c 0,0.22272 -0.18797,0.40327 -0.41985,0.40327 -0.23187,0 -0.41984,-0.18055 -0.41984,-0.40327 0,-0.22272 0.18797,-0.40327 0.41984,-0.40327 0.23188,0 0.41985,0.18055 0.41985,0.40327 z"
         sodipodi:ry="0.40327182"
         sodipodi:rx="0.41984466"
         sodipodi:cy="434.84253"
         sodipodi:cx="251.32121"
         id="path4155-2-7-9-5-4-7-4"
         style="fill:#008000;fill-rule:evenodd;stroke:#008000;stroke-width:1px;stroke-linecap:butt;stroke-linejoin:miter;stroke-opacity:1"
         sodipodi:type="arc" />
      <rect
         transform="scale(-1,1)"
         y="449.5188"
         x="-322.96863"
         height="2.71875"
         width="2.46875"
         id="rect3912-1"
         style="fill:#008000;stroke:none" />
      <rect
         transform="scale(-1,1)"
         y="451.03442"
         x="-321.8905"
         height="2.71875"
         width="2.46875"
         id="rect3912-8-3"
         style="fill:#008000;stroke:none" />
      <rect
         transform="scale(-1,1)"
         y="452.15942"
         x="-319.67175"
         height="2.71875"
         width="2.46875"
         id="rect3912-8-8-5"
         style="fill:#008000;stroke:none" />
      <rect
         transform="scale(-1,1)"
         y="452.81567"
         x="-317.453"
         height="2.71875"
         width="2.46875"
         id="rect3912-8-8-2-9"
         style="fill:#008000;stroke:none" />
      <rect
         transform="scale(-1,1)"
         y="453.84692"
         x="-315.42175"
         height="2.71875"
         width="2.46875"
         id="rect3912-8-8-2-4-8"
         style="fill:#008000;stroke:none" />
      <rect
         transform="scale(-1,1)"
         y="454.56567"
         x="-313.1405"
         height="2.71875"
         width="2.46875"
         id="rect3912-8-8-2-4-5-4"
         style="fill:#008000;stroke:none" />
      <rect
         transform="scale(-1,1)"
         y="454.78442"
         x="-311.10925"
         height="2.71875"
         width="14.875"
         id="rect3912-8-8-2-4-5-5-0"
         style="fill:#008000;stroke:none" />
      <rect
         transform="scale(-1,1)"
         y="454.03442"
         x="-297.328"
         height="2.71875"
         width="2.46875"
         id="rect3912-8-8-2-4-5-1-7"
         style="fill:#008000;stroke:none" />
      <rect
         transform="scale(-1,1)"
         y="453.19067"
         x="-295.3905"
         height="2.71875"
         width="2.46875"
         id="rect3912-8-8-2-4-5-7-63"
         style="fill:#008000;stroke:none" />
      <rect
         transform="scale(-1,1)"
         y="452.28442"
         x="-293.17175"
         height="2.71875"
         width="2.46875"
         id="rect3912-8-8-2-4-5-7-1-6"
         style="fill:#008000;stroke:none" />
      <rect
         transform="scale(-1,1)"
         y="451.28442"
         x="-290.92175"
         height="2.71875"
         width="2.46875"
         id="rect3912-8-8-2-4-5-7-15-1"
         style="fill:#008000;stroke:none" />
      <rect
         transform="scale(-1,1)"
         y="450.03442"
         x="-289.3905"
         height="2.71875"
         width="2.46875"
         id="rect3912-8-8-2-4-5-7-2-5"
         style="fill:#008000;stroke:none" />
      <rect
         transform="scale(-1,1)"
         y="446.53442"
         x="-285.29675"
         height="2.71875"
         width="2.46875"
         id="rect3912-8-8-2-4-5-7-7-4"
         style="fill:#008000;stroke:none" />
      <rect
         transform="scale(-1,1)"
         y="447.75317"
         x="-286.23425"
         height="2.71875"
         width="2.46875"
         id="rect3912-8-8-2-4-5-7-6-2"
         style="fill:#008000;stroke:none" />
      <rect
         transform="scale(-1,1)"
         y="449.15942"
         x="-288.10925"
         height="2.71875"
         width="2.46875"
         id="rect3912-8-8-2-4-5-7-14-0"
         style="fill:#008000;stroke:none" />
      <rect
         transform="scale(-1,1)"
         y="445.09692"
         x="-283.8905"
         height="2.71875"
         width="2.46875"
         id="rect3912-8-8-2-4-5-7-23-9"
         style="fill:#008000;stroke:none" />
      <rect
         transform="scale(-1,1)"
         y="443.15942"
         x="-282.7655"
         height="2.71875"
         width="2.46875"
         id="rect3912-8-8-2-4-5-7-22-7"
         style="fill:#008000;stroke:none" />
      <rect
         transform="scale(-1,1)"
         y="438.40942"
         x="-279.54675"
         height="2.71875"
         width="2.46875"
         id="rect3912-8-8-2-4-5-7-16-3"
         style="fill:#008000;stroke:none" />
      <rect
         transform="scale(-1,1)"
         y="440.09692"
         x="-280.6405"
         height="2.71875"
         width="2.46875"
         id="rect3912-8-8-2-4-5-7-8-7"
         style="fill:#008000;stroke:none" />
      <rect
         transform="scale(-1,1)"
         y="441.87817"
         x="-281.54675"
         height="2.71875"
         width="2.46875"
         id="rect3912-8-8-2-4-5-7-5-2"
         style="fill:#008000;stroke:none" />
      <rect
         transform="scale(-1,1)"
         y="436.53442"
         x="-278.67175"
         height="2.71875"
         width="2.46875"
         id="rect3912-8-8-2-4-5-7-76-6"
         style="fill:#008000;stroke:none" />
      <rect
         transform="scale(-1,1)"
         y="432.37817"
         x="-279.328"
         height="2.71875"
         width="2.46875"
         id="rect3912-8-8-2-4-5-7-18-0"
         style="fill:#008000;stroke:none" />
      <path
         transform="matrix(-0.80643844,0,0,0.83957977,479.7697,70.372941)"
         d="m 251.74106,434.84253 c 0,0.22272 -0.18797,0.40327 -0.41985,0.40327 -0.23187,0 -0.41984,-0.18055 -0.41984,-0.40327 0,-0.22272 0.18797,-0.40327 0.41984,-0.40327 0.23188,0 0.41985,0.18055 0.41985,0.40327 z"
         sodipodi:ry="0.40327182"
         sodipodi:rx="0.41984466"
         sodipodi:cy="434.84253"
         sodipodi:cx="251.32121"
         id="path4155-2-7-9-16"
         style="fill:#008000;fill-rule:evenodd;stroke:#008000;stroke-width:1px;stroke-linecap:butt;stroke-linejoin:miter;stroke-opacity:1"
         sodipodi:type="arc" />
      <path
         transform="matrix(-0.80643844,0,0,0.83957977,479.73688,70.712581)"
         d="m 251.74106,434.84253 c 0,0.22272 -0.18797,0.40327 -0.41985,0.40327 -0.23187,0 -0.41984,-0.18055 -0.41984,-0.40327 0,-0.22272 0.18797,-0.40327 0.41984,-0.40327 0.23188,0 0.41985,0.18055 0.41985,0.40327 z"
         sodipodi:ry="0.40327182"
         sodipodi:rx="0.41984466"
         sodipodi:cy="434.84253"
         sodipodi:cx="251.32121"
         id="path4155-2-7-9-5-5"
         style="fill:#008000;fill-rule:evenodd;stroke:#008000;stroke-width:1px;stroke-linecap:butt;stroke-linejoin:miter;stroke-opacity:1"
         sodipodi:type="arc" />
      <path
         transform="matrix(-0.80643844,0,0,0.83957977,480.08095,69.020961)"
         d="m 251.74106,434.84253 c 0,0.22272 -0.18797,0.40327 -0.41985,0.40327 -0.23187,0 -0.41984,-0.18055 -0.41984,-0.40327 0,-0.22272 0.18797,-0.40327 0.41984,-0.40327 0.23188,0 0.41985,0.18055 0.41985,0.40327 z"
         sodipodi:ry="0.40327182"
         sodipodi:rx="0.41984466"
         sodipodi:cy="434.84253"
         sodipodi:cx="251.32121"
         id="path4155-2-7-9-5-4-75"
         style="fill:#008000;fill-rule:evenodd;stroke:#008000;stroke-width:1px;stroke-linecap:butt;stroke-linejoin:miter;stroke-opacity:1"
         sodipodi:type="arc" />
      <path
         transform="matrix(-0.80643844,0,0,0.83957977,479.9708,69.573981)"
         d="m 251.74106,434.84253 c 0,0.22272 -0.18797,0.40327 -0.41985,0.40327 -0.23187,0 -0.41984,-0.18055 -0.41984,-0.40327 0,-0.22272 0.18797,-0.40327 0.41984,-0.40327 0.23188,0 0.41985,0.18055 0.41985,0.40327 z"
         sodipodi:ry="0.40327182"
         sodipodi:rx="0.41984466"
         sodipodi:cy="434.84253"
         sodipodi:cx="251.32121"
         id="path4155-2-7-9-5-4-3-4"
         style="fill:#008000;fill-rule:evenodd;stroke:#008000;stroke-width:1px;stroke-linecap:butt;stroke-linejoin:miter;stroke-opacity:1"
         sodipodi:type="arc" />
      <path
         transform="matrix(-0.80643844,0,0,0.83957977,479.65104,71.084701)"
         d="m 251.74106,434.84253 c 0,0.22272 -0.18797,0.40327 -0.41985,0.40327 -0.23187,0 -0.41984,-0.18055 -0.41984,-0.40327 0,-0.22272 0.18797,-0.40327 0.41984,-0.40327 0.23188,0 0.41985,0.18055 0.41985,0.40327 z"
         sodipodi:ry="0.40327182"
         sodipodi:rx="0.41984466"
         sodipodi:cy="434.84253"
         sodipodi:cx="251.32121"
         id="path4155-2-7-9-5-4-1-1"
         style="fill:#008000;fill-rule:evenodd;stroke:#008000;stroke-width:1px;stroke-linecap:butt;stroke-linejoin:miter;stroke-opacity:1"
         sodipodi:type="arc" />
      <path
         transform="matrix(-0.80643844,0,0,0.83957977,479.86248,69.933821)"
         d="m 251.74106,434.84253 c 0,0.22272 -0.18797,0.40327 -0.41985,0.40327 -0.23187,0 -0.41984,-0.18055 -0.41984,-0.40327 0,-0.22272 0.18797,-0.40327 0.41984,-0.40327 0.23188,0 0.41985,0.18055 0.41985,0.40327 z"
         sodipodi:ry="0.40327182"
         sodipodi:rx="0.41984466"
         sodipodi:cy="434.84253"
         sodipodi:cx="251.32121"
         id="path4155-2-7-9-1-2"
         style="fill:#008000;fill-rule:evenodd;stroke:#008000;stroke-width:1px;stroke-linecap:butt;stroke-linejoin:miter;stroke-opacity:1"
         sodipodi:type="arc" />
      <path
         transform="matrix(-0.80643844,0,0,0.83957977,480.14373,68.527571)"
         d="m 251.74106,434.84253 c 0,0.22272 -0.18797,0.40327 -0.41985,0.40327 -0.23187,0 -0.41984,-0.18055 -0.41984,-0.40327 0,-0.22272 0.18797,-0.40327 0.41984,-0.40327 0.23188,0 0.41985,0.18055 0.41985,0.40327 z"
         sodipodi:ry="0.40327182"
         sodipodi:rx="0.41984466"
         sodipodi:cy="434.84253"
         sodipodi:cx="251.32121"
         id="path4155-2-7-9-5-4-7-0"
         style="fill:#008000;fill-rule:evenodd;stroke:#008000;stroke-width:1px;stroke-linecap:butt;stroke-linejoin:miter;stroke-opacity:1"
         sodipodi:type="arc" />
      <path
         transform="matrix(-0.80643844,0,0,0.83957977,480.36248,71.340071)"
         d="m 251.74106,434.84253 c 0,0.22272 -0.18797,0.40327 -0.41985,0.40327 -0.23187,0 -0.41984,-0.18055 -0.41984,-0.40327 0,-0.22272 0.18797,-0.40327 0.41984,-0.40327 0.23188,0 0.41985,0.18055 0.41985,0.40327 z"
         sodipodi:ry="0.40327182"
         sodipodi:rx="0.41984466"
         sodipodi:cy="434.84253"
         sodipodi:cx="251.32121"
         id="path4155-2-7-9-5-4-7-4-0"
         style="fill:#008000;fill-rule:evenodd;stroke:#008000;stroke-width:1px;stroke-linecap:butt;stroke-linejoin:miter;stroke-opacity:1"
         sodipodi:type="arc" />
    </g>
  </g>
</svg>
