<?xml version="1.0" encoding="UTF-8" standalone="no"?>
<!-- Created with Inkscape (http://www.inkscape.org/) -->

<svg
   xmlns:dc="http://purl.org/dc/elements/1.1/"
   xmlns:cc="http://creativecommons.org/ns#"
   xmlns:rdf="http://www.w3.org/1999/02/22-rdf-syntax-ns#"
   xmlns:svg="http://www.w3.org/2000/svg"
   xmlns="http://www.w3.org/2000/svg"
   xmlns:sodipodi="http://sodipodi.sourceforge.net/DTD/sodipodi-0.dtd"
   xmlns:inkscape="http://www.inkscape.org/namespaces/inkscape"
   width="744.09448819"
   height="1052.3622047"
   id="svg2"
   version="1.1"
   inkscape:version="0.48.4 r9939"
   sodipodi:docname="Sad Frog Face.svg">
  <defs
     id="defs4" />
  <sodipodi:namedview
     id="base"
     pagecolor="#ffffff"
     bordercolor="#666666"
     borderopacity="1.0"
     inkscape:pageopacity="0.0"
     inkscape:pageshadow="2"
     inkscape:zoom="4"
     inkscape:cx="260.02249"
     inkscape:cy="586.92207"
     inkscape:document-units="px"
     inkscape:current-layer="layer1"
     showgrid="false"
     showguides="true"
     inkscape:guide-bbox="true"
     inkscape:window-width="872"
     inkscape:window-height="689"
     inkscape:window-x="0"
     inkscape:window-y="40"
     inkscape:window-maximized="0" />
  <metadata
     id="metadata7">
    <rdf:RDF>
      <cc:Work
         rdf:about="">
        <dc:format>image/svg+xml</dc:format>
        <dc:type
           rdf:resource="http://purl.org/dc/dcmitype/StillImage" />
        <dc:title></dc:title>
      </cc:Work>
    </rdf:RDF>
  </metadata>
  <g
     inkscape:label="Layer 1"
     inkscape:groupmode="layer"
     id="layer1">
    <path
       sodipodi:type="arc"
       style="fill:#008000;stroke:#000000;stroke-width:1px;stroke-linecap:butt;stroke-linejoin:miter;stroke-opacity:1"
       id="path3859"
       sodipodi:cx="256.07144"
       sodipodi:cy="526.29077"
       sodipodi:rx="69.285713"
       sodipodi:ry="45.357143"
       d="m 325.35715,526.29077 a 69.285713,45.357143 0 1 1 -138.57142,0 69.285713,45.357143 0 1 1 138.57142,0 z"
       transform="matrix(1.0031497,0,0,0.98118934,8.1220069,-41.028712)" />
    <path
       sodipodi:type="arc"
       style="fill:none;stroke:#000000;stroke-width:1px;stroke-linecap:butt;stroke-linejoin:miter;stroke-opacity:1;opacity:1"
       id="path3833"
       sodipodi:cx="127.85714"
       sodipodi:cy="446.46933"
       sodipodi:rx="11.785714"
       sodipodi:ry="10.892858"
       d="m 139.64285,446.46933 a 11.785714,10.892858 0 1 1 -23.57142,0 11.785714,10.892858 0 1 1 23.57142,0 z"
       transform="matrix(1.0564122,0,0,1.1430035,129.93016,-82.953826)" />
    <rect
       style="fill:#ffffff;stroke:none"
       id="rect3845"
       width="26"
       height="20"
       x="252"
       y="412.36218" />
    <rect
       style="fill:none;stroke:none"
       id="rect3837"
       width="96.428574"
       height="33.57143"
       x="151.07143"
       y="492.00504" />
    <path
       sodipodi:type="arc"
       style="fill:#ffffff;stroke:none"
       id="path3833-9"
       sodipodi:cx="127.85714"
       sodipodi:cy="446.46933"
       sodipodi:rx="11.785714"
       sodipodi:ry="10.892858"
       d="m 139.64285,446.46933 a 11.785714,10.892858 0 1 1 -23.57142,0 11.785714,10.892858 0 1 1 23.57142,0 z"
       transform="matrix(1.0181818,0,0,1.1016393,134.81819,-64.485977)" />
    <rect
       style="fill:#ff0000;stroke:none"
       id="rect3897"
       width="0.80859375"
       height="0.1484375"
       x="123.25391"
       y="432.37781" />
    <path
       sodipodi:type="arc"
       style="fill:#008000;stroke:#000000;stroke-width:1px;stroke-linecap:butt;stroke-linejoin:miter;stroke-opacity:1"
       id="path3813"
       sodipodi:cx="135.53572"
       sodipodi:cy="417.89789"
       sodipodi:rx="23.035715"
       sodipodi:ry="23.035715"
       d="m 158.57144,417.89789 a 23.035715,23.035715 0 1 1 -46.07143,0 23.035715,23.035715 0 1 1 46.07143,0 z"
       transform="matrix(1.2746585,0,0,1.2746586,52.238241,-105.31496)" />
    <path
       sodipodi:type="arc"
       style="fill:#008000;stroke:#000000;stroke-width:1px;stroke-linecap:butt;stroke-linejoin:miter;stroke-opacity:1"
       id="path3813-0"
       sodipodi:cx="135.53572"
       sodipodi:cy="417.89789"
       sodipodi:rx="23.035715"
       sodipodi:ry="23.035715"
       d="m 158.57144,417.89789 a 23.035715,23.035715 0 1 1 -46.07143,0 23.035715,23.035715 0 1 1 46.07143,0 z"
       transform="matrix(1.2746585,0,0,1.2746586,132.23824,-105.31496)" />
    <g
       id="g3905">
      <path
         transform="matrix(0.72553852,0,0,0.81089595,147.97273,109.19728)"
         d="m 250.35714,392.36218 a 33.92857,30.357143 0 1 1 -67.85714,0 33.92857,30.357143 0 1 1 67.85714,0 z"
         sodipodi:ry="30.357143"
         sodipodi:rx="33.92857"
         sodipodi:cy="392.36218"
         sodipodi:cx="216.42857"
         id="path2985-1"
         style="fill:#ffffff;stroke:#000000;stroke-width:1px;stroke-linecap:butt;stroke-linejoin:miter;stroke-opacity:1"
         sodipodi:type="arc" />
      <g
         id="g3854">
        <g
           id="g3851">
          <path
             transform="matrix(1.0780937,0,0,1.1461839,159.26483,-91.742084)"
             d="m 153.21429,452.89789 a 18.035715,16.964285 0 1 1 -36.07143,0 18.035715,16.964285 0 1 1 36.07143,0 z"
             sodipodi:ry="16.964285"
             sodipodi:rx="18.035715"
             sodipodi:cy="452.89789"
             sodipodi:cx="135.17857"
             id="path3773-7"
             style="fill:#000000;fill-rule:evenodd;stroke:#000000;stroke-width:1px;stroke-linecap:butt;stroke-linejoin:miter;stroke-opacity:1"
             sodipodi:type="arc" />
        </g>
        <path
           sodipodi:type="arc"
           style="fill:#ffffff;fill-rule:evenodd;stroke:#000000;stroke-width:1px;stroke-linecap:butt;stroke-linejoin:miter;stroke-opacity:1"
           id="path3793-4"
           sodipodi:cx="98.39286"
           sodipodi:cy="430.04074"
           sodipodi:rx="6.9642859"
           sodipodi:ry="6.6071429"
           d="m 105.35715,430.04074 a 6.9642859,6.6071429 0 1 1 -13.928575,0 6.9642859,6.6071429 0 1 1 13.928575,0 z"
           transform="matrix(1.0029928,0,0,1.0572086,216.31267,-35.280587)" />
      </g>
    </g>
    <g
       id="g3899">
      <path
         transform="matrix(0.72553852,0,0,0.81089595,67.972733,109.19728)"
         d="m 250.35714,392.36218 a 33.92857,30.357143 0 1 1 -67.85714,0 33.92857,30.357143 0 1 1 67.85714,0 z"
         sodipodi:ry="30.357143"
         sodipodi:rx="33.92857"
         sodipodi:cy="392.36218"
         sodipodi:cx="216.42857"
         id="path2985"
         style="fill:#ffffff;stroke:#000000;stroke-width:1px;stroke-linecap:butt;stroke-linejoin:miter;stroke-opacity:1"
         sodipodi:type="arc" />
      <g
         id="g3847">
        <path
           sodipodi:type="arc"
           style="fill:#000000;fill-rule:evenodd;stroke:#000000;stroke-width:1px;stroke-linecap:butt;stroke-linejoin:miter;stroke-opacity:1"
           id="path3773"
           sodipodi:cx="135.17857"
           sodipodi:cy="452.89789"
           sodipodi:rx="18.035715"
           sodipodi:ry="16.964285"
           d="m 153.21429,452.89789 a 18.035715,16.964285 0 1 1 -36.07143,0 18.035715,16.964285 0 1 1 36.07143,0 z"
           transform="matrix(1.0780937,0,0,1.1461839,79.264828,-91.742098)" />
        <path
           sodipodi:type="arc"
           style="fill:#ffffff;fill-rule:evenodd;stroke:#000000;stroke-width:1px;stroke-linecap:butt;stroke-linejoin:miter;stroke-opacity:1"
           id="path3793"
           sodipodi:cx="98.39286"
           sodipodi:cy="430.04074"
           sodipodi:rx="6.9642859"
           sodipodi:ry="6.6071429"
           d="m 105.35715,430.04074 a 6.9642859,6.6071429 0 1 1 -13.928575,0 6.9642859,6.6071429 0 1 1 13.928575,0 z"
           transform="matrix(1.0029928,0,0,1.0572086,136.31267,-35.280587)" />
      </g>
    </g>
    <rect
       style="fill:#008000;stroke:none"
       id="rect3912"
       width="2.46875"
       height="2.71875"
       x="207.03125"
       y="449.51843" />
    <rect
       style="fill:#008000;stroke:none"
       id="rect3912-8"
       width="2.46875"
       height="2.71875"
       x="208.10938"
       y="451.03406" />
    <rect
       style="fill:#008000;stroke:none"
       id="rect3912-8-8"
       width="2.46875"
       height="2.71875"
       x="210.32812"
       y="452.15906" />
    <rect
       style="fill:#008000;stroke:none"
       id="rect3912-8-8-2"
       width="2.46875"
       height="2.71875"
       x="212.54688"
       y="452.81531" />
    <rect
       style="fill:#008000;stroke:none"
       id="rect3912-8-8-2-4"
       width="2.46875"
       height="2.71875"
       x="214.57812"
       y="453.84656" />
    <rect
       style="fill:#008000;stroke:none"
       id="rect3912-8-8-2-4-5"
       width="2.46875"
       height="2.71875"
       x="216.85938"
       y="454.56531" />
    <rect
       style="fill:#008000;stroke:none"
       id="rect3912-8-8-2-4-5-5"
       width="14.875"
       height="2.71875"
       x="218.89062"
       y="454.78406" />
    <rect
       style="fill:#008000;stroke:none"
       id="rect3912-8-8-2-4-5-1"
       width="2.46875"
       height="2.71875"
       x="232.67188"
       y="454.03406" />
    <rect
       style="fill:#008000;stroke:none"
       id="rect3912-8-8-2-4-5-7"
       width="2.46875"
       height="2.71875"
       x="234.60938"
       y="453.19031" />
    <rect
       style="fill:#008000;stroke:none"
       id="rect3912-8-8-2-4-5-7-1"
       width="2.46875"
       height="2.71875"
       x="236.82812"
       y="452.28406" />
    <rect
       style="fill:#008000;stroke:none"
       id="rect3912-8-8-2-4-5-7-15"
       width="2.46875"
       height="2.71875"
       x="239.07812"
       y="451.28406" />
    <rect
       style="fill:#008000;stroke:none"
       id="rect3912-8-8-2-4-5-7-2"
       width="2.46875"
       height="2.71875"
       x="240.60938"
       y="450.03406" />
    <rect
       style="fill:#008000;stroke:none"
       id="rect3912-8-8-2-4-5-7-7"
       width="2.46875"
       height="2.71875"
       x="244.70312"
       y="446.53406" />
    <rect
       style="fill:#008000;stroke:none"
       id="rect3912-8-8-2-4-5-7-6"
       width="2.46875"
       height="2.71875"
       x="243.76562"
       y="447.75281" />
    <rect
       style="fill:#008000;stroke:none"
       id="rect3912-8-8-2-4-5-7-14"
       width="2.46875"
       height="2.71875"
       x="241.89062"
       y="449.15906" />
    <rect
       style="fill:#008000;stroke:none"
       id="rect3912-8-8-2-4-5-7-23"
       width="2.46875"
       height="2.71875"
       x="246.10938"
       y="445.09656" />
    <rect
       style="fill:#008000;stroke:none"
       id="rect3912-8-8-2-4-5-7-22"
       width="2.46875"
       height="2.71875"
       x="247.23438"
       y="443.15906" />
    <rect
       style="fill:#008000;stroke:none"
       id="rect3912-8-8-2-4-5-7-16"
       width="2.46875"
       height="2.71875"
       x="250.45312"
       y="438.40906" />
    <rect
       style="fill:#008000;stroke:none"
       id="rect3912-8-8-2-4-5-7-8"
       width="2.46875"
       height="2.71875"
       x="249.35938"
       y="440.09656" />
    <rect
       style="fill:#008000;stroke:none"
       id="rect3912-8-8-2-4-5-7-5"
       width="2.46875"
       height="2.71875"
       x="248.45312"
       y="441.87781" />
    <rect
       style="fill:#008000;stroke:none"
       id="rect3912-8-8-2-4-5-7-76"
       width="2.46875"
       height="2.71875"
       x="251.32812"
       y="436.53406" />
    <rect
       style="fill:#008000;stroke:none"
       id="rect3912-8-8-2-4-5-7-18"
       width="2.46875"
       height="2.71875"
       x="250.67188"
       y="432.37781" />
    <rect
       style="fill:#008000;stroke:none"
       id="rect3912-8-8-2-4-5-7-9"
       width="2.46875"
       height="2.71875"
       x="251.67188"
       y="434.53406" />
    <path
       sodipodi:type="arc"
       style="fill:#008000;fill-rule:evenodd;stroke:#008000;stroke-width:1px;stroke-linecap:butt;stroke-linejoin:miter;stroke-opacity:1"
       id="path4155"
       sodipodi:cx="251.32121"
       sodipodi:cy="434.84253"
       sodipodi:rx="0.41984466"
       sodipodi:ry="0.40327182"
       d="m 251.74106,434.84253 a 0.41984466,0.40327182 0 1 1 -0.83969,0 0.41984466,0.40327182 0 1 1 0.83969,0 z"
       transform="matrix(0.80643844,0,0,0.83957977,50.818572,69.778241)" />
    <path
       sodipodi:type="arc"
       style="fill:#008000;fill-rule:evenodd;stroke:#008000;stroke-width:1px;stroke-linecap:butt;stroke-linejoin:miter;stroke-opacity:1"
       id="path4155-2"
       sodipodi:cx="251.32121"
       sodipodi:cy="434.84253"
       sodipodi:rx="0.41984466"
       sodipodi:ry="0.40327182"
       d="m 251.74106,434.84253 a 0.41984466,0.40327182 0 1 1 -0.83969,0 0.41984466,0.40327182 0 1 1 0.83969,0 z"
       transform="matrix(0.80643844,0,0,0.83957977,50.723257,69.630468)" />
    <path
       sodipodi:type="arc"
       style="fill:#008000;fill-rule:evenodd;stroke:#008000;stroke-width:1px;stroke-linecap:butt;stroke-linejoin:miter;stroke-opacity:1"
       id="path4155-2-7"
       sodipodi:cx="251.32121"
       sodipodi:cy="434.84253"
       sodipodi:rx="0.41984466"
       sodipodi:ry="0.40327182"
       d="m 251.74106,434.84253 a 0.41984466,0.40327182 0 1 1 -0.83969,0 0.41984466,0.40327182 0 1 1 0.83969,0 z"
       transform="matrix(0.80643844,0,0,0.83957977,50.612772,69.486836)" />
    <path
       sodipodi:type="arc"
       style="fill:#008000;fill-rule:evenodd;stroke:#008000;stroke-width:1px;stroke-linecap:butt;stroke-linejoin:miter;stroke-opacity:1"
       id="path4155-2-7-9"
       sodipodi:cx="251.32121"
       sodipodi:cy="434.84253"
       sodipodi:rx="0.41984466"
       sodipodi:ry="0.40327182"
       d="m 251.74106,434.84253 a 0.41984466,0.40327182 0 1 1 -0.83969,0 0.41984466,0.40327182 0 1 1 0.83969,0 z"
       transform="matrix(0.80643844,0,0,0.83957977,50.48019,69.31006)" />
    <path
       sodipodi:type="arc"
       style="fill:#008000;fill-rule:evenodd;stroke:#008000;stroke-width:1px;stroke-linecap:butt;stroke-linejoin:miter;stroke-opacity:1"
       id="path4155-2-7-9-5"
       sodipodi:cx="251.32121"
       sodipodi:cy="434.84253"
       sodipodi:rx="0.41984466"
       sodipodi:ry="0.40327182"
       d="m 251.74106,434.84253 a 0.41984466,0.40327182 0 1 1 -0.83969,0 0.41984466,0.40327182 0 1 1 0.83969,0 z"
       transform="matrix(0.80643844,0,0,0.83957977,50.32551,69.055944)" />
    <path
       sodipodi:type="arc"
       style="fill:#008000;fill-rule:evenodd;stroke:#008000;stroke-width:1px;stroke-linecap:butt;stroke-linejoin:miter;stroke-opacity:1"
       id="path4155-2-7-9-5-4"
       sodipodi:cx="251.32121"
       sodipodi:cy="434.84253"
       sodipodi:rx="0.41984466"
       sodipodi:ry="0.40327182"
       d="m 251.74106,434.84253 a 0.41984466,0.40327182 0 1 1 -0.83969,0 0.41984466,0.40327182 0 1 1 0.83969,0 z"
       transform="matrix(0.80643844,0,0,0.83957977,50.137685,68.801827)" />
    <path
       sodipodi:type="arc"
       style="fill:#008000;fill-rule:evenodd;stroke:#008000;stroke-width:1px;stroke-linecap:butt;stroke-linejoin:miter;stroke-opacity:1"
       id="path4155-2-7-9-5-4-3"
       sodipodi:cx="251.32121"
       sodipodi:cy="434.84253"
       sodipodi:rx="0.41984466"
       sodipodi:ry="0.40327182"
       d="m 251.74106,434.84253 a 0.41984466,0.40327182 0 1 1 -0.83969,0 0.41984466,0.40327182 0 1 1 0.83969,0 z"
       transform="matrix(0.80643844,0,0,0.83957977,50.060344,68.636099)" />
    <path
       sodipodi:type="arc"
       style="fill:#008000;fill-rule:evenodd;stroke:#008000;stroke-width:1px;stroke-linecap:butt;stroke-linejoin:miter;stroke-opacity:1"
       id="path4155-2-7-9-5-4-1"
       sodipodi:cx="251.32121"
       sodipodi:cy="434.84253"
       sodipodi:rx="0.41984466"
       sodipodi:ry="0.40327182"
       d="m 251.74106,434.84253 a 0.41984466,0.40327182 0 1 1 -0.83969,0 0.41984466,0.40327182 0 1 1 0.83969,0 z"
       transform="matrix(0.80643844,0,0,0.83957977,50.005102,68.459321)" />
    <rect
       style="fill:#008000;stroke:none"
       id="rect3912-3"
       width="2.46875"
       height="2.71875"
       x="-322.96939"
       y="449.5188"
       transform="scale(-1,1)" />
    <rect
       style="fill:#008000;stroke:none"
       id="rect3912-8-3"
       width="2.46875"
       height="2.71875"
       x="-321.89127"
       y="451.03442"
       transform="scale(-1,1)" />
    <rect
       style="fill:#008000;stroke:none"
       id="rect3912-8-8-5"
       width="2.46875"
       height="2.71875"
       x="-319.67252"
       y="452.15942"
       transform="scale(-1,1)" />
    <rect
       style="fill:#008000;stroke:none"
       id="rect3912-8-8-2-9"
       width="2.46875"
       height="2.71875"
       x="-317.45377"
       y="452.81567"
       transform="scale(-1,1)" />
    <rect
       style="fill:#008000;stroke:none"
       id="rect3912-8-8-2-4-9"
       width="2.46875"
       height="2.71875"
       x="-315.42252"
       y="453.84692"
       transform="scale(-1,1)" />
    <rect
       style="fill:#008000;stroke:none"
       id="rect3912-8-8-2-4-5-8"
       width="2.46875"
       height="2.71875"
       x="-313.14127"
       y="454.56567"
       transform="scale(-1,1)" />
    <rect
       style="fill:#008000;stroke:none"
       id="rect3912-8-8-2-4-5-5-1"
       width="14.875"
       height="2.71875"
       x="-311.11002"
       y="454.78442"
       transform="scale(-1,1)" />
    <rect
       style="fill:#008000;stroke:none"
       id="rect3912-8-8-2-4-5-1-8"
       width="2.46875"
       height="2.71875"
       x="-297.32877"
       y="454.03442"
       transform="scale(-1,1)" />
    <rect
       style="fill:#008000;stroke:none"
       id="rect3912-8-8-2-4-5-7-26"
       width="2.46875"
       height="2.71875"
       x="-295.39127"
       y="453.19067"
       transform="scale(-1,1)" />
    <rect
       style="fill:#008000;stroke:none"
       id="rect3912-8-8-2-4-5-7-1-6"
       width="2.46875"
       height="2.71875"
       x="-293.17252"
       y="452.28442"
       transform="scale(-1,1)" />
    <rect
       style="fill:#008000;stroke:none"
       id="rect3912-8-8-2-4-5-7-15-0"
       width="2.46875"
       height="2.71875"
       x="-290.92252"
       y="451.28442"
       transform="scale(-1,1)" />
    <rect
       style="fill:#008000;stroke:none"
       id="rect3912-8-8-2-4-5-7-2-3"
       width="2.46875"
       height="2.71875"
       x="-289.39127"
       y="450.03442"
       transform="scale(-1,1)" />
    <rect
       style="fill:#008000;stroke:none"
       id="rect3912-8-8-2-4-5-7-7-8"
       width="2.46875"
       height="2.71875"
       x="-285.29752"
       y="446.53442"
       transform="scale(-1,1)" />
    <rect
       style="fill:#008000;stroke:none"
       id="rect3912-8-8-2-4-5-7-6-0"
       width="2.46875"
       height="2.71875"
       x="-286.23502"
       y="447.75317"
       transform="scale(-1,1)" />
    <rect
       style="fill:#008000;stroke:none"
       id="rect3912-8-8-2-4-5-7-14-1"
       width="2.46875"
       height="2.71875"
       x="-288.11002"
       y="449.15942"
       transform="scale(-1,1)" />
    <rect
       style="fill:#008000;stroke:none"
       id="rect3912-8-8-2-4-5-7-23-2"
       width="2.46875"
       height="2.71875"
       x="-283.89127"
       y="445.09692"
       transform="scale(-1,1)" />
    <rect
       style="fill:#008000;stroke:none"
       id="rect3912-8-8-2-4-5-7-22-5"
       width="2.46875"
       height="2.71875"
       x="-282.76627"
       y="443.15942"
       transform="scale(-1,1)" />
    <rect
       style="fill:#008000;stroke:none"
       id="rect3912-8-8-2-4-5-7-16-0"
       width="2.46875"
       height="2.71875"
       x="-279.54752"
       y="438.40942"
       transform="scale(-1,1)" />
    <rect
       style="fill:#008000;stroke:none"
       id="rect3912-8-8-2-4-5-7-8-9"
       width="2.46875"
       height="2.71875"
       x="-280.64127"
       y="440.09692"
       transform="scale(-1,1)" />
    <rect
       style="fill:#008000;stroke:none"
       id="rect3912-8-8-2-4-5-7-5-4"
       width="2.46875"
       height="2.71875"
       x="-281.54752"
       y="441.87817"
       transform="scale(-1,1)" />
    <rect
       style="fill:#008000;stroke:none"
       id="rect3912-8-8-2-4-5-7-76-7"
       width="2.46875"
       height="2.71875"
       x="-278.67252"
       y="436.53442"
       transform="scale(-1,1)" />
    <rect
       style="fill:#008000;stroke:none"
       id="rect3912-8-8-2-4-5-7-18-8"
       width="2.46875"
       height="2.71875"
       x="-279.32877"
       y="432.37817"
       transform="scale(-1,1)" />
    <rect
       style="fill:#008000;stroke:none"
       id="rect3912-8-8-2-4-5-7-9-3"
       width="2.46875"
       height="2.71875"
       x="-278.32877"
       y="434.53442"
       transform="scale(-1,1)" />
    <path
       sodipodi:type="arc"
       style="fill:#008000;fill-rule:evenodd;stroke:#008000;stroke-width:1px;stroke-linecap:butt;stroke-linejoin:miter;stroke-opacity:1"
       id="path4155-5"
       sodipodi:cx="251.32121"
       sodipodi:cy="434.84253"
       sodipodi:rx="0.41984466"
       sodipodi:ry="0.40327182"
       d="m 251.74106,434.84253 a 0.41984466,0.40327182 0 1 1 -0.83969,0 0.41984466,0.40327182 0 1 1 0.83969,0 z"
       transform="matrix(-0.80643844,0,0,0.83957977,479.18209,69.778615)" />
    <path
       sodipodi:type="arc"
       style="fill:#008000;fill-rule:evenodd;stroke:#008000;stroke-width:1px;stroke-linecap:butt;stroke-linejoin:miter;stroke-opacity:1"
       id="path4155-2-1"
       sodipodi:cx="251.32121"
       sodipodi:cy="434.84253"
       sodipodi:rx="0.41984466"
       sodipodi:ry="0.40327182"
       d="m 251.74106,434.84253 a 0.41984466,0.40327182 0 1 1 -0.83969,0 0.41984466,0.40327182 0 1 1 0.83969,0 z"
       transform="matrix(-0.80643844,0,0,0.83957977,479.2774,69.630845)" />
    <path
       sodipodi:type="arc"
       style="fill:#008000;fill-rule:evenodd;stroke:#008000;stroke-width:1px;stroke-linecap:butt;stroke-linejoin:miter;stroke-opacity:1"
       id="path4155-2-7-2"
       sodipodi:cx="251.32121"
       sodipodi:cy="434.84253"
       sodipodi:rx="0.41984466"
       sodipodi:ry="0.40327182"
       d="m 251.74106,434.84253 a 0.41984466,0.40327182 0 1 1 -0.83969,0 0.41984466,0.40327182 0 1 1 0.83969,0 z"
       transform="matrix(-0.80643844,0,0,0.83957977,479.38789,69.487215)" />
    <path
       sodipodi:type="arc"
       style="fill:#008000;fill-rule:evenodd;stroke:#008000;stroke-width:1px;stroke-linecap:butt;stroke-linejoin:miter;stroke-opacity:1"
       id="path4155-2-7-9-0"
       sodipodi:cx="251.32121"
       sodipodi:cy="434.84253"
       sodipodi:rx="0.41984466"
       sodipodi:ry="0.40327182"
       d="m 251.74106,434.84253 a 0.41984466,0.40327182 0 1 1 -0.83969,0 0.41984466,0.40327182 0 1 1 0.83969,0 z"
       transform="matrix(-0.80643844,0,0,0.83957977,479.52047,69.310435)" />
    <path
       sodipodi:type="arc"
       style="fill:#008000;fill-rule:evenodd;stroke:#008000;stroke-width:1px;stroke-linecap:butt;stroke-linejoin:miter;stroke-opacity:1"
       id="path4155-2-7-9-5-1"
       sodipodi:cx="251.32121"
       sodipodi:cy="434.84253"
       sodipodi:rx="0.41984466"
       sodipodi:ry="0.40327182"
       d="m 251.74106,434.84253 a 0.41984466,0.40327182 0 1 1 -0.83969,0 0.41984466,0.40327182 0 1 1 0.83969,0 z"
       transform="matrix(-0.80643844,0,0,0.83957977,479.67515,69.056325)" />
    <path
       sodipodi:type="arc"
       style="fill:#008000;fill-rule:evenodd;stroke:#008000;stroke-width:1px;stroke-linecap:butt;stroke-linejoin:miter;stroke-opacity:1"
       id="path4155-2-7-9-5-4-6"
       sodipodi:cx="251.32121"
       sodipodi:cy="434.84253"
       sodipodi:rx="0.41984466"
       sodipodi:ry="0.40327182"
       d="m 251.74106,434.84253 a 0.41984466,0.40327182 0 1 1 -0.83969,0 0.41984466,0.40327182 0 1 1 0.83969,0 z"
       transform="matrix(-0.80643844,0,0,0.83957977,479.86297,68.802205)" />
    <path
       sodipodi:type="arc"
       style="fill:#008000;fill-rule:evenodd;stroke:#008000;stroke-width:1px;stroke-linecap:butt;stroke-linejoin:miter;stroke-opacity:1"
       id="path4155-2-7-9-5-4-3-4"
       sodipodi:cx="251.32121"
       sodipodi:cy="434.84253"
       sodipodi:rx="0.41984466"
       sodipodi:ry="0.40327182"
       d="m 251.74106,434.84253 a 0.41984466,0.40327182 0 1 1 -0.83969,0 0.41984466,0.40327182 0 1 1 0.83969,0 z"
       transform="matrix(-0.80643844,0,0,0.83957977,479.94032,68.636475)" />
    <path
       sodipodi:type="arc"
       style="fill:#008000;fill-rule:evenodd;stroke:#008000;stroke-width:1px;stroke-linecap:butt;stroke-linejoin:miter;stroke-opacity:1"
       id="path4155-2-7-9-5-4-1-0"
       sodipodi:cx="251.32121"
       sodipodi:cy="434.84253"
       sodipodi:rx="0.41984466"
       sodipodi:ry="0.40327182"
       d="m 251.74106,434.84253 a 0.41984466,0.40327182 0 1 1 -0.83969,0 0.41984466,0.40327182 0 1 1 0.83969,0 z"
       transform="matrix(-0.80643844,0,0,0.83957977,479.99556,68.459695)" />
    <rect
       style="fill:#000000;stroke:#000000;stroke-width:0.33322206"
       id="rect4640"
       width="99.666779"
       height="0.66677797"
       x="215.16661"
       y="480.27878" />
  </g>
</svg>
