<?xml version="1.0" encoding="UTF-8" standalone="no"?>
<!-- Created with Inkscape (http://www.inkscape.org/) -->

<svg
   xmlns:dc="http://purl.org/dc/elements/1.1/"
   xmlns:cc="http://creativecommons.org/ns#"
   xmlns:rdf="http://www.w3.org/1999/02/22-rdf-syntax-ns#"
   xmlns:svg="http://www.w3.org/2000/svg"
   xmlns="http://www.w3.org/2000/svg"
   xmlns:sodipodi="http://sodipodi.sourceforge.net/DTD/sodipodi-0.dtd"
   xmlns:inkscape="http://www.inkscape.org/namespaces/inkscape"
   width="744.09448819"
   height="1052.3622047"
   id="svg2"
   version="1.1"
   inkscape:version="0.48.4 r9939"
   sodipodi:docname="Super Happy Frog.svg">
  <defs
     id="defs4" />
  <sodipodi:namedview
     id="base"
     pagecolor="#ffffff"
     bordercolor="#666666"
     borderopacity="1.0"
     inkscape:pageopacity="0.0"
     inkscape:pageshadow="2"
     inkscape:zoom="2"
     inkscape:cx="368.12605"
     inkscape:cy="544.31271"
     inkscape:document-units="px"
     inkscape:current-layer="layer1"
     showgrid="false"
     showguides="true"
     inkscape:guide-bbox="true"
     inkscape:window-width="1366"
     inkscape:window-height="705"
     inkscape:window-x="-8"
     inkscape:window-y="32"
     inkscape:window-maximized="1" />
  <metadata
     id="metadata7">
    <rdf:RDF>
      <cc:Work
         rdf:about="">
        <dc:format>image/svg+xml</dc:format>
        <dc:type
           rdf:resource="http://purl.org/dc/dcmitype/StillImage" />
        <dc:title></dc:title>
      </cc:Work>
    </rdf:RDF>
  </metadata>
  <g
     inkscape:label="Layer 1"
     inkscape:groupmode="layer"
     id="layer1"
     style="display:inline">
    <g
       id="g3188">
      <path
         transform="matrix(1.0031497,0,0,0.98118934,143.12201,-34.028712)"
         d="m 325.35715,526.29077 a 69.285713,45.357143 0 1 1 -138.57142,0 69.285713,45.357143 0 1 1 138.57142,0 z"
         sodipodi:ry="45.357143"
         sodipodi:rx="69.285713"
         sodipodi:cy="526.29077"
         sodipodi:cx="256.07144"
         id="path3859"
         style="fill:#00ff00;stroke:#000000;stroke-width:1px;stroke-linecap:butt;stroke-linejoin:miter;stroke-opacity:1"
         sodipodi:type="arc" />
      <path
         transform="matrix(1.0564122,0,0,1.1430035,264.93016,-75.953826)"
         d="m 139.64285,446.46933 a 11.785714,10.892858 0 1 1 -23.57142,0 11.785714,10.892858 0 1 1 23.57142,0 z"
         sodipodi:ry="10.892858"
         sodipodi:rx="11.785714"
         sodipodi:cy="446.46933"
         sodipodi:cx="127.85714"
         id="path3833"
         style="fill:none;stroke:#000000;stroke-width:1px;stroke-linecap:butt;stroke-linejoin:miter;stroke-opacity:1"
         sodipodi:type="arc" />
      <rect
         y="419.36218"
         x="387"
         height="20"
         width="26"
         id="rect3845"
         style="fill:#ffffff;stroke:none" />
      <path
         transform="matrix(1.0181818,0,0,1.1016393,269.81819,-57.485977)"
         d="m 139.64285,446.46933 a 11.785714,10.892858 0 1 1 -23.57142,0 11.785714,10.892858 0 1 1 23.57142,0 z"
         sodipodi:ry="10.892858"
         sodipodi:rx="11.785714"
         sodipodi:cy="446.46933"
         sodipodi:cx="127.85714"
         id="path3833-9"
         style="fill:#ffffff;stroke:none"
         sodipodi:type="arc" />
      <path
         transform="matrix(1.2746585,0,0,1.2746586,187.23824,-98.31496)"
         d="m 158.57144,417.89789 a 23.035715,23.035715 0 1 1 -46.07143,0 23.035715,23.035715 0 1 1 46.07143,0 z"
         sodipodi:ry="23.035715"
         sodipodi:rx="23.035715"
         sodipodi:cy="417.89789"
         sodipodi:cx="135.53572"
         id="path3813"
         style="fill:#00ff00;stroke:#000000;stroke-width:1px;stroke-linecap:butt;stroke-linejoin:miter;stroke-opacity:1"
         sodipodi:type="arc" />
      <path
         transform="matrix(1.2746585,0,0,1.2746586,267.23824,-98.31496)"
         d="m 158.57144,417.89789 a 23.035715,23.035715 0 1 1 -46.07143,0 23.035715,23.035715 0 1 1 46.07143,0 z"
         sodipodi:ry="23.035715"
         sodipodi:rx="23.035715"
         sodipodi:cy="417.89789"
         sodipodi:cx="135.53572"
         id="path3813-0"
         style="fill:#00ff00;stroke:#000000;stroke-width:1px;stroke-linecap:butt;stroke-linejoin:miter;stroke-opacity:1"
         sodipodi:type="arc" />
      <g
         transform="translate(135,7)"
         id="g3905">
        <path
           sodipodi:type="arc"
           style="fill:#ffffff;stroke:#000000;stroke-width:1px;stroke-linecap:butt;stroke-linejoin:miter;stroke-opacity:1"
           id="path2985-1"
           sodipodi:cx="216.42857"
           sodipodi:cy="392.36218"
           sodipodi:rx="33.92857"
           sodipodi:ry="30.357143"
           d="m 250.35714,392.36218 c 0,16.76579 -15.19033,30.35715 -33.92857,30.35715 -18.73823,0 -33.92857,-13.59136 -33.92857,-30.35715 0,-16.76578 15.19034,-30.35714 33.92857,-30.35714 18.73824,0 33.92857,13.59136 33.92857,30.35714 z"
           transform="matrix(0.72553852,0,0,0.81089595,147.97273,109.19728)" />
        <g
           id="g3854">
          <g
             id="g3851">
            <path
               sodipodi:type="arc"
               style="fill:#000000;fill-rule:evenodd;stroke:#000000;stroke-width:1px;stroke-linecap:butt;stroke-linejoin:miter;stroke-opacity:1"
               id="path3773-7"
               sodipodi:cx="135.17857"
               sodipodi:cy="452.89789"
               sodipodi:rx="18.035715"
               sodipodi:ry="16.964285"
               d="m 153.21429,452.89789 c 0,9.36911 -8.07487,16.96428 -18.03572,16.96428 -9.96085,0 -18.03571,-7.59517 -18.03571,-16.96428 0,-9.36912 8.07486,-16.96429 18.03571,-16.96429 9.96085,0 18.03572,7.59517 18.03572,16.96429 z"
               transform="matrix(1.0780937,0,0,1.1461839,159.26483,-91.742084)" />
          </g>
          <path
             transform="matrix(1.0029928,0,0,1.0572086,216.31267,-35.280587)"
             d="m 105.35715,430.04074 c 0,3.64903 -3.11802,6.60714 -6.96429,6.60714 -3.846268,0 -6.964285,-2.95811 -6.964285,-6.60714 0,-3.64902 3.118017,-6.60714 6.964285,-6.60714 3.84627,0 6.96429,2.95812 6.96429,6.60714 z"
             sodipodi:ry="6.6071429"
             sodipodi:rx="6.9642859"
             sodipodi:cy="430.04074"
             sodipodi:cx="98.39286"
             id="path3793-4"
             style="fill:#ffffff;fill-rule:evenodd;stroke:#000000;stroke-width:1px;stroke-linecap:butt;stroke-linejoin:miter;stroke-opacity:1"
             sodipodi:type="arc" />
        </g>
      </g>
      <g
         transform="translate(135,7)"
         id="g3899">
        <path
           sodipodi:type="arc"
           style="fill:#ffffff;stroke:#000000;stroke-width:1px;stroke-linecap:butt;stroke-linejoin:miter;stroke-opacity:1"
           id="path2985"
           sodipodi:cx="216.42857"
           sodipodi:cy="392.36218"
           sodipodi:rx="33.92857"
           sodipodi:ry="30.357143"
           d="m 250.35714,392.36218 c 0,16.76579 -15.19033,30.35715 -33.92857,30.35715 -18.73823,0 -33.92857,-13.59136 -33.92857,-30.35715 0,-16.76578 15.19034,-30.35714 33.92857,-30.35714 18.73824,0 33.92857,13.59136 33.92857,30.35714 z"
           transform="matrix(0.72553852,0,0,0.81089595,67.972733,109.19728)" />
        <g
           id="g3847">
          <path
             transform="matrix(1.0780937,0,0,1.1461839,79.264828,-91.742098)"
             d="m 153.21429,452.89789 c 0,9.36911 -8.07487,16.96428 -18.03572,16.96428 -9.96085,0 -18.03571,-7.59517 -18.03571,-16.96428 0,-9.36912 8.07486,-16.96429 18.03571,-16.96429 9.96085,0 18.03572,7.59517 18.03572,16.96429 z"
             sodipodi:ry="16.964285"
             sodipodi:rx="18.035715"
             sodipodi:cy="452.89789"
             sodipodi:cx="135.17857"
             id="path3773"
             style="fill:#000000;fill-rule:evenodd;stroke:#000000;stroke-width:1px;stroke-linecap:butt;stroke-linejoin:miter;stroke-opacity:1"
             sodipodi:type="arc" />
          <path
             transform="matrix(1.0029928,0,0,1.0572086,136.31267,-35.280587)"
             d="m 105.35715,430.04074 c 0,3.64903 -3.11802,6.60714 -6.96429,6.60714 -3.846268,0 -6.964285,-2.95811 -6.964285,-6.60714 0,-3.64902 3.118017,-6.60714 6.964285,-6.60714 3.84627,0 6.96429,2.95812 6.96429,6.60714 z"
             sodipodi:ry="6.6071429"
             sodipodi:rx="6.9642859"
             sodipodi:cy="430.04074"
             sodipodi:cx="98.39286"
             id="path3793"
             style="fill:#ffffff;fill-rule:evenodd;stroke:#000000;stroke-width:1px;stroke-linecap:butt;stroke-linejoin:miter;stroke-opacity:1"
             sodipodi:type="arc" />
        </g>
      </g>
      <rect
         y="456.51843"
         x="342.03125"
         height="2.71875"
         width="2.46875"
         id="rect3912"
         style="fill:#00ff00;stroke:none" />
      <rect
         y="458.03406"
         x="343.10938"
         height="2.71875"
         width="2.46875"
         id="rect3912-8"
         style="fill:#00ff00;stroke:none" />
      <rect
         y="459.15906"
         x="345.32812"
         height="2.71875"
         width="2.46875"
         id="rect3912-8-8"
         style="fill:#00ff00;stroke:none" />
      <rect
         y="459.81531"
         x="347.54688"
         height="2.71875"
         width="2.46875"
         id="rect3912-8-8-2"
         style="fill:#00ff00;stroke:none" />
      <rect
         y="460.84656"
         x="349.57812"
         height="2.71875"
         width="2.46875"
         id="rect3912-8-8-2-4"
         style="fill:#00ff00;stroke:none" />
      <rect
         y="461.56531"
         x="351.85938"
         height="2.71875"
         width="2.46875"
         id="rect3912-8-8-2-4-5"
         style="fill:#00ff00;stroke:none" />
      <rect
         y="461.78406"
         x="353.89062"
         height="2.71875"
         width="14.875"
         id="rect3912-8-8-2-4-5-5"
         style="fill:#00ff00;stroke:none" />
      <rect
         y="461.03406"
         x="367.67188"
         height="2.71875"
         width="2.46875"
         id="rect3912-8-8-2-4-5-1"
         style="fill:#00ff00;stroke:none" />
      <rect
         y="460.19031"
         x="369.60938"
         height="2.71875"
         width="2.46875"
         id="rect3912-8-8-2-4-5-7"
         style="fill:#00ff00;stroke:none" />
      <rect
         y="459.28406"
         x="371.82812"
         height="2.71875"
         width="2.46875"
         id="rect3912-8-8-2-4-5-7-1"
         style="fill:#00ff00;stroke:none" />
      <rect
         y="458.28406"
         x="374.07812"
         height="2.71875"
         width="2.46875"
         id="rect3912-8-8-2-4-5-7-15"
         style="fill:#00ff00;stroke:none" />
      <rect
         y="457.03406"
         x="375.60938"
         height="2.71875"
         width="2.46875"
         id="rect3912-8-8-2-4-5-7-2"
         style="fill:#00ff00;stroke:none" />
      <rect
         y="453.53406"
         x="379.70312"
         height="2.71875"
         width="2.46875"
         id="rect3912-8-8-2-4-5-7-7"
         style="fill:#00ff00;stroke:none" />
      <rect
         y="454.75281"
         x="378.76562"
         height="2.71875"
         width="2.46875"
         id="rect3912-8-8-2-4-5-7-6"
         style="fill:#00ff00;stroke:none" />
      <rect
         y="456.15906"
         x="376.89062"
         height="2.71875"
         width="2.46875"
         id="rect3912-8-8-2-4-5-7-14"
         style="fill:#00ff00;stroke:none" />
      <rect
         y="452.09656"
         x="381.10938"
         height="2.71875"
         width="2.46875"
         id="rect3912-8-8-2-4-5-7-23"
         style="fill:#00ff00;stroke:none" />
      <rect
         y="450.15906"
         x="382.23438"
         height="2.71875"
         width="2.46875"
         id="rect3912-8-8-2-4-5-7-22"
         style="fill:#00ff00;stroke:none" />
      <rect
         y="445.40906"
         x="385.45312"
         height="2.71875"
         width="2.46875"
         id="rect3912-8-8-2-4-5-7-16"
         style="fill:#00ff00;stroke:none" />
      <rect
         y="447.09656"
         x="384.35938"
         height="2.71875"
         width="2.46875"
         id="rect3912-8-8-2-4-5-7-8"
         style="fill:#00ff00;stroke:none" />
      <rect
         y="448.87781"
         x="383.45312"
         height="2.71875"
         width="2.46875"
         id="rect3912-8-8-2-4-5-7-5"
         style="fill:#00ff00;stroke:none" />
      <rect
         y="443.53406"
         x="386.32812"
         height="2.71875"
         width="2.46875"
         id="rect3912-8-8-2-4-5-7-76"
         style="fill:#00ff00;stroke:none" />
      <rect
         y="439.37781"
         x="385.67188"
         height="2.71875"
         width="2.46875"
         id="rect3912-8-8-2-4-5-7-18"
         style="fill:#00ff00;stroke:#00ff00" />
      <rect
         y="441.53406"
         x="386.67188"
         height="2.71875"
         width="2.46875"
         id="rect3912-8-8-2-4-5-7-9"
         style="fill:#00ff00;stroke:none" />
      <path
         transform="matrix(0.80643844,0,0,0.83957977,185.81857,76.778241)"
         d="m 251.74106,434.84253 a 0.41984466,0.40327182 0 1 1 -0.83969,0 0.41984466,0.40327182 0 1 1 0.83969,0 z"
         sodipodi:ry="0.40327182"
         sodipodi:rx="0.41984466"
         sodipodi:cy="434.84253"
         sodipodi:cx="251.32121"
         id="path4155"
         style="fill:#00ff00;fill-rule:evenodd;stroke:#00ff00;stroke-width:1px;stroke-linecap:butt;stroke-linejoin:miter;stroke-opacity:1"
         sodipodi:type="arc" />
      <path
         transform="matrix(0.80643844,0,0,0.83957977,185.72326,76.630468)"
         d="m 251.74106,434.84253 a 0.41984466,0.40327182 0 1 1 -0.83969,0 0.41984466,0.40327182 0 1 1 0.83969,0 z"
         sodipodi:ry="0.40327182"
         sodipodi:rx="0.41984466"
         sodipodi:cy="434.84253"
         sodipodi:cx="251.32121"
         id="path4155-2"
         style="fill:#00ff00;fill-rule:evenodd;stroke:#00ff00;stroke-width:1px;stroke-linecap:butt;stroke-linejoin:miter;stroke-opacity:1"
         sodipodi:type="arc" />
      <path
         transform="matrix(0.80643844,0,0,0.83957977,185.61277,76.486836)"
         d="m 251.74106,434.84253 a 0.41984466,0.40327182 0 1 1 -0.83969,0 0.41984466,0.40327182 0 1 1 0.83969,0 z"
         sodipodi:ry="0.40327182"
         sodipodi:rx="0.41984466"
         sodipodi:cy="434.84253"
         sodipodi:cx="251.32121"
         id="path4155-2-7"
         style="fill:#00ff00;fill-rule:evenodd;stroke:#00ff00;stroke-width:1px;stroke-linecap:butt;stroke-linejoin:miter;stroke-opacity:1"
         sodipodi:type="arc" />
      <path
         transform="matrix(0.80643844,0,0,0.83957977,185.48019,76.31006)"
         d="m 251.74106,434.84253 a 0.41984466,0.40327182 0 1 1 -0.83969,0 0.41984466,0.40327182 0 1 1 0.83969,0 z"
         sodipodi:ry="0.40327182"
         sodipodi:rx="0.41984466"
         sodipodi:cy="434.84253"
         sodipodi:cx="251.32121"
         id="path4155-2-7-9"
         style="fill:#00ff00;fill-rule:evenodd;stroke:#00ff00;stroke-width:1px;stroke-linecap:butt;stroke-linejoin:miter;stroke-opacity:1"
         sodipodi:type="arc" />
      <path
         transform="matrix(0.80643844,0,0,0.83957977,185.32551,76.055944)"
         d="m 251.74106,434.84253 a 0.41984466,0.40327182 0 1 1 -0.83969,0 0.41984466,0.40327182 0 1 1 0.83969,0 z"
         sodipodi:ry="0.40327182"
         sodipodi:rx="0.41984466"
         sodipodi:cy="434.84253"
         sodipodi:cx="251.32121"
         id="path4155-2-7-9-5"
         style="fill:#00ff00;fill-rule:evenodd;stroke:#00ff00;stroke-width:1px;stroke-linecap:butt;stroke-linejoin:miter;stroke-opacity:1"
         sodipodi:type="arc" />
      <path
         transform="matrix(0.80643844,0,0,0.83957977,185.13768,75.801827)"
         d="m 251.74106,434.84253 a 0.41984466,0.40327182 0 1 1 -0.83969,0 0.41984466,0.40327182 0 1 1 0.83969,0 z"
         sodipodi:ry="0.40327182"
         sodipodi:rx="0.41984466"
         sodipodi:cy="434.84253"
         sodipodi:cx="251.32121"
         id="path4155-2-7-9-5-4"
         style="fill:#00ff00;fill-rule:evenodd;stroke:#00ff00;stroke-width:1px;stroke-linecap:butt;stroke-linejoin:miter;stroke-opacity:1"
         sodipodi:type="arc" />
      <path
         transform="matrix(0.80643844,0,0,0.83957977,185.06034,75.636099)"
         d="m 251.74106,434.84253 a 0.41984466,0.40327182 0 1 1 -0.83969,0 0.41984466,0.40327182 0 1 1 0.83969,0 z"
         sodipodi:ry="0.40327182"
         sodipodi:rx="0.41984466"
         sodipodi:cy="434.84253"
         sodipodi:cx="251.32121"
         id="path4155-2-7-9-5-4-3"
         style="fill:#00ff00;fill-rule:evenodd;stroke:#00ff00;stroke-width:1px;stroke-linecap:butt;stroke-linejoin:miter;stroke-opacity:1"
         sodipodi:type="arc" />
      <path
         transform="matrix(0.80643844,0,0,0.83957977,185.0051,75.459321)"
         d="m 251.74106,434.84253 a 0.41984466,0.40327182 0 1 1 -0.83969,0 0.41984466,0.40327182 0 1 1 0.83969,0 z"
         sodipodi:ry="0.40327182"
         sodipodi:rx="0.41984466"
         sodipodi:cy="434.84253"
         sodipodi:cx="251.32121"
         id="path4155-2-7-9-5-4-1"
         style="fill:#00ff00;fill-rule:evenodd;stroke:none;stroke-width:1px;stroke-linecap:butt;stroke-linejoin:miter;stroke-opacity:1"
         sodipodi:type="arc" />
      <rect
         transform="scale(-1,1)"
         y="456.5188"
         x="-457.96939"
         height="2.71875"
         width="2.46875"
         id="rect3912-3"
         style="fill:#00ff00;stroke:none" />
      <rect
         transform="scale(-1,1)"
         y="458.03442"
         x="-456.89127"
         height="2.71875"
         width="2.46875"
         id="rect3912-8-3"
         style="fill:#00ff00;stroke:none" />
      <rect
         transform="scale(-1,1)"
         y="459.15942"
         x="-454.67252"
         height="2.71875"
         width="2.46875"
         id="rect3912-8-8-5"
         style="fill:#00ff00;stroke:none" />
      <rect
         transform="scale(-1,1)"
         y="459.81567"
         x="-452.45377"
         height="2.71875"
         width="2.46875"
         id="rect3912-8-8-2-9"
         style="fill:#00ff00;stroke:none" />
      <rect
         transform="scale(-1,1)"
         y="460.84692"
         x="-450.42252"
         height="2.71875"
         width="2.46875"
         id="rect3912-8-8-2-4-9"
         style="fill:#00ff00;stroke:none" />
      <rect
         transform="scale(-1,1)"
         y="461.56567"
         x="-448.14127"
         height="2.71875"
         width="2.46875"
         id="rect3912-8-8-2-4-5-8"
         style="fill:#00ff00;stroke:none" />
      <rect
         transform="scale(-1,1)"
         y="461.78442"
         x="-446.11002"
         height="2.71875"
         width="14.875"
         id="rect3912-8-8-2-4-5-5-1"
         style="fill:#00ff00;stroke:none" />
      <rect
         transform="scale(-1,1)"
         y="461.03442"
         x="-432.32877"
         height="2.71875"
         width="2.46875"
         id="rect3912-8-8-2-4-5-1-8"
         style="fill:#00ff00;stroke:none" />
      <rect
         transform="scale(-1,1)"
         y="460.19067"
         x="-430.39127"
         height="2.71875"
         width="2.46875"
         id="rect3912-8-8-2-4-5-7-26"
         style="fill:#00ff00;stroke:none" />
      <rect
         transform="scale(-1,1)"
         y="459.28442"
         x="-428.17252"
         height="2.71875"
         width="2.46875"
         id="rect3912-8-8-2-4-5-7-1-6"
         style="fill:#00ff00;stroke:none" />
      <rect
         transform="scale(-1,1)"
         y="458.28442"
         x="-425.92252"
         height="2.71875"
         width="2.46875"
         id="rect3912-8-8-2-4-5-7-15-0"
         style="fill:#00ff00;stroke:none" />
      <rect
         transform="scale(-1,1)"
         y="457.03442"
         x="-424.39127"
         height="2.71875"
         width="2.46875"
         id="rect3912-8-8-2-4-5-7-2-3"
         style="fill:#00ff00;stroke:none" />
      <rect
         transform="scale(-1,1)"
         y="453.53442"
         x="-420.29752"
         height="2.71875"
         width="2.46875"
         id="rect3912-8-8-2-4-5-7-7-8"
         style="fill:#00ff00;stroke:none" />
      <rect
         transform="scale(-1,1)"
         y="454.75317"
         x="-421.23502"
         height="2.71875"
         width="2.46875"
         id="rect3912-8-8-2-4-5-7-6-0"
         style="fill:#00ff00;stroke:none" />
      <rect
         transform="scale(-1,1)"
         y="456.15942"
         x="-423.11002"
         height="2.71875"
         width="2.46875"
         id="rect3912-8-8-2-4-5-7-14-1"
         style="fill:#00ff00;stroke:none" />
      <rect
         transform="scale(-1,1)"
         y="452.09692"
         x="-418.89127"
         height="2.71875"
         width="2.46875"
         id="rect3912-8-8-2-4-5-7-23-2"
         style="fill:#00ff00;stroke:none" />
      <rect
         transform="scale(-1,1)"
         y="450.15942"
         x="-417.76627"
         height="2.71875"
         width="2.46875"
         id="rect3912-8-8-2-4-5-7-22-5"
         style="fill:#00ff00;stroke:none" />
      <rect
         transform="scale(-1,1)"
         y="445.40942"
         x="-414.54752"
         height="2.71875"
         width="2.46875"
         id="rect3912-8-8-2-4-5-7-16-0"
         style="fill:#00ff00;stroke:none" />
      <rect
         transform="scale(-1,1)"
         y="447.09692"
         x="-415.64127"
         height="2.71875"
         width="2.46875"
         id="rect3912-8-8-2-4-5-7-8-9"
         style="fill:#00ff00;stroke:none" />
      <rect
         transform="scale(-1,1)"
         y="448.87817"
         x="-416.54752"
         height="2.71875"
         width="2.46875"
         id="rect3912-8-8-2-4-5-7-5-4"
         style="fill:#00ff00;stroke:none" />
      <rect
         transform="scale(-1,1)"
         y="443.53442"
         x="-413.67252"
         height="2.71875"
         width="2.46875"
         id="rect3912-8-8-2-4-5-7-76-7"
         style="fill:#00ff00;stroke:none" />
      <rect
         transform="scale(-1,1)"
         y="439.37817"
         x="-414.32877"
         height="2.71875"
         width="2.46875"
         id="rect3912-8-8-2-4-5-7-18-8"
         style="fill:#00ff00;stroke:none" />
      <rect
         transform="scale(-1,1)"
         y="441.53442"
         x="-413.32877"
         height="2.71875"
         width="2.46875"
         id="rect3912-8-8-2-4-5-7-9-3"
         style="fill:#00ff00;stroke:none" />
      <path
         transform="matrix(-0.80643844,0,0,0.83957977,614.18209,76.778615)"
         d="m 251.74106,434.84253 a 0.41984466,0.40327182 0 1 1 -0.83969,0 0.41984466,0.40327182 0 1 1 0.83969,0 z"
         sodipodi:ry="0.40327182"
         sodipodi:rx="0.41984466"
         sodipodi:cy="434.84253"
         sodipodi:cx="251.32121"
         id="path4155-5"
         style="fill:#00ff00;fill-rule:evenodd;stroke:#00ff00;stroke-width:1px;stroke-linecap:butt;stroke-linejoin:miter;stroke-opacity:1"
         sodipodi:type="arc" />
      <path
         transform="matrix(-0.80643844,0,0,0.83957977,614.2774,76.630845)"
         d="m 251.74106,434.84253 a 0.41984466,0.40327182 0 1 1 -0.83969,0 0.41984466,0.40327182 0 1 1 0.83969,0 z"
         sodipodi:ry="0.40327182"
         sodipodi:rx="0.41984466"
         sodipodi:cy="434.84253"
         sodipodi:cx="251.32121"
         id="path4155-2-1"
         style="fill:#00ff00;fill-rule:evenodd;stroke:#00ff00;stroke-width:1px;stroke-linecap:butt;stroke-linejoin:miter;stroke-opacity:1"
         sodipodi:type="arc" />
      <path
         transform="matrix(-0.80643844,0,0,0.83957977,614.38789,76.487215)"
         d="m 251.74106,434.84253 a 0.41984466,0.40327182 0 1 1 -0.83969,0 0.41984466,0.40327182 0 1 1 0.83969,0 z"
         sodipodi:ry="0.40327182"
         sodipodi:rx="0.41984466"
         sodipodi:cy="434.84253"
         sodipodi:cx="251.32121"
         id="path4155-2-7-2"
         style="fill:#00ff00;fill-rule:evenodd;stroke:#00ff00;stroke-width:1px;stroke-linecap:butt;stroke-linejoin:miter;stroke-opacity:1"
         sodipodi:type="arc" />
      <path
         transform="matrix(-0.80643844,0,0,0.83957977,614.52047,76.310435)"
         d="m 251.74106,434.84253 a 0.41984466,0.40327182 0 1 1 -0.83969,0 0.41984466,0.40327182 0 1 1 0.83969,0 z"
         sodipodi:ry="0.40327182"
         sodipodi:rx="0.41984466"
         sodipodi:cy="434.84253"
         sodipodi:cx="251.32121"
         id="path4155-2-7-9-0"
         style="fill:#00ff00;fill-rule:evenodd;stroke:#00ff00;stroke-width:1px;stroke-linecap:butt;stroke-linejoin:miter;stroke-opacity:1"
         sodipodi:type="arc" />
      <path
         transform="matrix(-0.80643844,0,0,0.83957977,614.67515,76.056325)"
         d="m 251.74106,434.84253 a 0.41984466,0.40327182 0 1 1 -0.83969,0 0.41984466,0.40327182 0 1 1 0.83969,0 z"
         sodipodi:ry="0.40327182"
         sodipodi:rx="0.41984466"
         sodipodi:cy="434.84253"
         sodipodi:cx="251.32121"
         id="path4155-2-7-9-5-1"
         style="fill:#00ff00;fill-rule:evenodd;stroke:#00ff00;stroke-width:1px;stroke-linecap:butt;stroke-linejoin:miter;stroke-opacity:1"
         sodipodi:type="arc" />
      <path
         transform="matrix(-0.80643844,0,0,0.83957977,614.86297,75.802205)"
         d="m 251.74106,434.84253 a 0.41984466,0.40327182 0 1 1 -0.83969,0 0.41984466,0.40327182 0 1 1 0.83969,0 z"
         sodipodi:ry="0.40327182"
         sodipodi:rx="0.41984466"
         sodipodi:cy="434.84253"
         sodipodi:cx="251.32121"
         id="path4155-2-7-9-5-4-6"
         style="fill:#00ff00;fill-rule:evenodd;stroke:#00ff00;stroke-width:1px;stroke-linecap:butt;stroke-linejoin:miter;stroke-opacity:1"
         sodipodi:type="arc" />
      <path
         transform="matrix(-0.80643844,0,0,0.83957977,614.94032,75.636475)"
         d="m 251.74106,434.84253 a 0.41984466,0.40327182 0 1 1 -0.83969,0 0.41984466,0.40327182 0 1 1 0.83969,0 z"
         sodipodi:ry="0.40327182"
         sodipodi:rx="0.41984466"
         sodipodi:cy="434.84253"
         sodipodi:cx="251.32121"
         id="path4155-2-7-9-5-4-3-4"
         style="fill:#00ff00;fill-rule:evenodd;stroke:#00ff00;stroke-width:1px;stroke-linecap:butt;stroke-linejoin:miter;stroke-opacity:1"
         sodipodi:type="arc" />
      <path
         transform="matrix(-0.80643844,0,0,0.83957977,614.99556,75.459695)"
         d="m 251.74106,434.84253 a 0.41984466,0.40327182 0 1 1 -0.83969,0 0.41984466,0.40327182 0 1 1 0.83969,0 z"
         sodipodi:ry="0.40327182"
         sodipodi:rx="0.41984466"
         sodipodi:cy="434.84253"
         sodipodi:cx="251.32121"
         id="path4155-2-7-9-5-4-1-0"
         style="fill:#00ff00;fill-rule:evenodd;stroke:#00ff00;stroke-width:1px;stroke-linecap:butt;stroke-linejoin:miter;stroke-opacity:1"
         sodipodi:type="arc" />
      <path
         sodipodi:end="3.1343753"
         sodipodi:start="0"
         transform="matrix(1.1465856,0,0,1.0313886,-71.050664,-17.847864)"
         d="m 453.96255,497.10657 a 43.133514,16.440233 0 0 1 -86.2659,0.11865 l 43.13239,-0.11865 z"
         sodipodi:ry="16.440233"
         sodipodi:rx="43.133514"
         sodipodi:cy="497.10657"
         sodipodi:cx="410.82904"
         id="path3107"
         style="fill:#ff0000;fill-rule:evenodd;stroke:#000000;stroke-width:1px;stroke-linecap:butt;stroke-linejoin:miter;stroke-opacity:1"
         sodipodi:type="arc" />
    </g>
  </g>
</svg>
